<svg width="340" height="150" viewBox="0 0 340 150" fill="none" xmlns="http://www.w3.org/2000/svg">
<path d="M110.3 114.796C111.236 114.235 112.015 112.927 112.015 111.837V74.9204C112.015 73.83 111.236 72.4904 110.3 71.9608L78.3026 53.5183C77.367 52.9887 75.8077 52.9887 74.8721 53.5183L42.9057 71.9297C41.9701 72.4593 41.1904 73.7989 41.1904 74.8892V80.3721C41.1904 81.4625 41.9701 81.8986 42.9057 81.3379L74.9032 62.6461C75.8388 62.0854 77.3982 62.0854 78.3338 62.6461L102.379 76.5092C103.314 77.0699 104.094 78.3784 104.094 79.4687V107.226C104.094 108.316 103.314 109.656 102.379 110.186L78.3026 124.08C77.367 124.609 75.8077 124.609 74.8721 124.08L50.7959 110.186C49.8603 109.625 49.0807 108.316 49.0807 107.226V88.8457C49.0807 87.7554 48.301 87.3192 47.3654 87.8489L42.9057 90.4968C41.9701 91.0576 41.1904 92.3972 41.1904 93.4564V111.805C41.1904 112.896 41.9701 114.235 42.9057 114.765L74.9032 133.208C75.8388 133.737 77.3982 133.737 78.3338 133.208L110.3 114.796Z" fill="#3D319D"/>
<path d="M78.3021 37.1619C77.3665 36.6323 75.8072 36.6323 74.8716 37.1619L50.7954 51.0561C49.8598 51.6169 49.0802 51.1496 49.0802 50.0592V1.21055C49.0802 0.120194 48.3005 -0.315948 47.3649 0.244805L42.874 2.92396C41.9384 3.48471 41.1588 4.82429 41.1588 5.91464V63.4239C41.1588 64.5142 41.9384 64.9504 42.874 64.4208L74.8404 46.2586C75.776 45.729 77.3353 45.729 78.2709 46.2586L116.506 68.3149C117.441 68.8445 118.221 70.1841 118.221 71.2744V115.387C118.221 116.477 117.441 117.817 116.506 118.347L78.2709 140.403C77.3353 140.932 75.776 140.932 74.8404 140.403L36.6367 118.409C35.7011 117.879 34.9214 116.54 34.9214 115.449V9.59069C34.9214 8.50034 34.1418 8.0642 33.2062 8.62495L28.7153 11.3041C27.7797 11.8649 27 13.2044 27 14.2948L27 119.998C27 121.088 27.7797 122.428 28.7153 122.957L74.8716 149.593C75.8072 150.123 77.3665 150.123 78.3021 149.593L124.458 122.957C125.394 122.396 126.174 121.088 126.174 119.998V66.7261C126.174 65.6357 125.394 64.2962 124.458 63.7665L78.3021 37.1619Z" fill="#3D319D"/>
<path d="M153.866 24.1348C156.646 24.1348 158.717 24.7864 160.078 26.0897C161.439 27.393 162.12 29.319 162.12 31.8677C162.12 33.2289 161.787 34.4308 161.121 35.4734C160.455 36.4871 159.47 37.2836 158.167 37.8628C156.863 38.4131 155.256 38.6882 153.344 38.6882L153.518 36.7333C154.416 36.7333 155.444 36.8636 156.603 37.1243C157.761 37.356 158.876 37.7904 159.948 38.4276C161.048 39.0358 161.946 39.9046 162.641 41.0341C163.365 42.1347 163.727 43.5538 163.727 45.2916C163.727 47.203 163.409 48.767 162.771 49.9834C162.163 51.1998 161.352 52.1411 160.339 52.8072C159.325 53.4733 158.239 53.9367 157.08 54.1974C155.922 54.4291 154.807 54.5449 153.735 54.5449H142.918C142.165 54.5449 141.528 54.2987 141.007 53.8064C140.514 53.2851 140.268 52.6479 140.268 51.8949V26.7848C140.268 26.0318 140.514 25.4091 141.007 24.9168C141.528 24.3954 142.165 24.1348 142.918 24.1348H153.866ZM153.084 29.2611H145.351L145.916 28.566V36.4292L145.394 36.0382H153.214C154.054 36.0382 154.807 35.763 155.473 35.2128C156.139 34.6625 156.472 33.866 156.472 32.8234C156.472 31.578 156.154 30.6802 155.517 30.1299C154.908 29.5507 154.097 29.2611 153.084 29.2611ZM153.431 41.1645H145.525L145.916 40.8169V49.9834L145.481 49.549H153.735C155.068 49.549 156.125 49.2014 156.907 48.5063C157.689 47.7823 158.08 46.7107 158.08 45.2916C158.08 43.9883 157.819 43.047 157.298 42.4678C156.776 41.8885 156.154 41.5265 155.43 41.3817C154.706 41.2369 154.039 41.1645 153.431 41.1645ZM178.989 54.9794C176.527 54.9794 174.384 54.4725 172.559 53.4588C170.763 52.4162 169.373 51.0116 168.389 49.2449C167.433 47.4782 166.955 45.4798 166.955 43.2497C166.955 40.6431 167.476 38.4276 168.519 36.6029C169.59 34.7494 170.981 33.3302 172.689 32.3455C174.398 31.3608 176.208 30.8685 178.12 30.8685C179.597 30.8685 180.987 31.1726 182.29 31.7808C183.623 32.389 184.796 33.2289 185.809 34.3005C186.823 35.3431 187.619 36.5595 188.199 37.9497C188.807 39.3399 189.111 40.8169 189.111 42.3809C189.082 43.076 188.807 43.6407 188.285 44.0751C187.764 44.5096 187.156 44.7268 186.461 44.7268H169.866L168.562 40.3825H184.506L183.55 41.2513V40.0784C183.492 39.2385 183.188 38.4855 182.638 37.8193C182.117 37.1532 181.45 36.6319 180.639 36.2554C179.858 35.8499 179.018 35.6472 178.12 35.6472C177.251 35.6472 176.44 35.763 175.687 35.9947C174.934 36.2264 174.282 36.6174 173.732 37.1677C173.182 37.718 172.747 38.4565 172.429 39.3833C172.11 40.3101 171.951 41.483 171.951 42.9022C171.951 44.4661 172.269 45.7984 172.907 46.8989C173.573 47.9705 174.413 48.796 175.426 49.3752C176.469 49.9255 177.57 50.2006 178.728 50.2006C179.8 50.2006 180.654 50.1137 181.291 49.94C181.928 49.7662 182.435 49.5635 182.812 49.3318C183.217 49.0711 183.579 48.8539 183.898 48.6801C184.419 48.4195 184.911 48.2891 185.375 48.2891C186.012 48.2891 186.533 48.5063 186.939 48.9408C187.373 49.3752 187.59 49.882 187.59 50.4613C187.59 51.2433 187.185 51.9528 186.374 52.59C185.621 53.2271 184.564 53.7919 183.203 54.2843C181.841 54.7477 180.437 54.9794 178.989 54.9794ZM153.866 66.1348C156.646 66.1348 158.717 66.7864 160.078 68.0897C161.439 69.393 162.12 71.319 162.12 73.8677C162.12 75.2289 161.787 76.4308 161.121 77.4734C160.455 78.4871 159.47 79.2836 158.167 79.8628C156.863 80.4131 155.256 80.6882 153.344 80.6882L153.518 78.7333C154.416 78.7333 155.444 78.8636 156.603 79.1243C157.761 79.356 158.876 79.7904 159.948 80.4276C161.048 81.0358 161.946 81.9046 162.641 83.0341C163.365 84.1347 163.727 85.5538 163.727 87.2916C163.727 89.203 163.409 90.767 162.771 91.9834C162.163 93.1998 161.352 94.1411 160.339 94.8072C159.325 95.4733 158.239 95.9367 157.08 96.1974C155.922 96.4291 154.807 96.5449 153.735 96.5449H142.918C142.165 96.5449 141.528 96.2987 141.007 95.8064C140.514 95.2851 140.268 94.6479 140.268 93.8949V68.7848C140.268 68.0318 140.514 67.4091 141.007 66.9168C141.528 66.3954 142.165 66.1348 142.918 66.1348H153.866ZM153.084 71.2611H145.351L145.916 70.566V78.4292L145.394 78.0382H153.214C154.054 78.0382 154.807 77.763 155.473 77.2128C156.139 76.6625 156.472 75.866 156.472 74.8234C156.472 73.578 156.154 72.6802 155.517 72.1299C154.908 71.5507 154.097 71.2611 153.084 71.2611ZM153.431 83.1645H145.525L145.916 82.8169V91.9834L145.481 91.549H153.735C155.068 91.549 156.125 91.2014 156.907 90.5063C157.689 89.7823 158.08 88.7107 158.08 87.2916C158.08 85.9883 157.819 85.047 157.298 84.4678C156.776 83.8885 156.154 83.5265 155.43 83.3817C154.706 83.2369 154.039 83.1645 153.431 83.1645ZM185.548 73.3029C186.301 73.3029 186.923 73.5635 187.416 74.0849C187.908 74.5772 188.154 75.1999 188.154 75.9529V86.9875C188.154 90.0574 187.3 92.4902 185.591 94.2859C183.882 96.0815 181.42 96.9794 178.206 96.9794C174.991 96.9794 172.529 96.0815 170.82 94.2859C169.141 92.4902 168.301 90.0574 168.301 86.9875V75.9529C168.301 75.1999 168.547 74.5772 169.039 74.0849C169.532 73.5635 170.154 73.3029 170.907 73.3029C171.66 73.3029 172.283 73.5635 172.775 74.0849C173.268 74.5772 173.514 75.1999 173.514 75.9529V86.9875C173.514 88.7541 173.905 90.0719 174.687 90.9408C175.469 91.7807 176.642 92.2006 178.206 92.2006C179.799 92.2006 180.986 91.7807 181.768 90.9408C182.55 90.0719 182.941 88.7541 182.941 86.9875V75.9529C182.941 75.1999 183.187 74.5772 183.679 74.0849C184.172 73.5635 184.795 73.3029 185.548 73.3029ZM192.451 92.9391C192.162 92.5337 192.031 92.0124 192.06 91.3752C192.089 90.738 192.466 90.1878 193.19 89.7244C193.653 89.4347 194.146 89.3189 194.667 89.3768C195.188 89.4058 195.695 89.6664 196.187 90.1588C197.027 90.9987 197.911 91.6503 198.837 92.1137C199.764 92.5771 200.923 92.8088 202.313 92.8088C202.747 92.7799 203.225 92.7219 203.746 92.635C204.268 92.5192 204.717 92.2875 205.093 91.94C205.499 91.5635 205.701 90.9987 205.701 90.2457C205.701 89.6085 205.484 89.1017 205.05 88.7252C204.615 88.3487 204.036 88.0301 203.312 87.7694C202.617 87.5088 201.835 87.2626 200.966 87.0309C200.068 86.7702 199.141 86.4806 198.186 86.162C197.259 85.8435 196.405 85.438 195.623 84.9456C194.841 84.4243 194.203 83.7437 193.711 82.9038C193.219 82.0639 192.973 81.0068 192.973 79.7325C192.973 78.2844 193.378 77.0535 194.189 76.0398C195 75.0261 196.043 74.2442 197.317 73.6939C198.62 73.1436 199.981 72.8685 201.401 72.8685C202.298 72.8685 203.24 72.9843 204.224 73.216C205.209 73.4187 206.15 73.7663 207.048 74.2586C207.946 74.722 208.699 75.3447 209.307 76.1267C209.626 76.5611 209.814 77.0824 209.872 77.6906C209.93 78.2988 209.655 78.8491 209.046 79.3415C208.612 79.689 208.105 79.8483 207.526 79.8193C206.947 79.7614 206.469 79.5587 206.092 79.2111C205.6 78.574 204.934 78.0671 204.094 77.6906C203.283 77.3141 202.342 77.1259 201.27 77.1259C200.836 77.1259 200.358 77.1838 199.837 77.2997C199.344 77.3865 198.91 77.6038 198.533 77.9513C198.157 78.2699 197.969 78.7912 197.969 79.5152C197.969 80.1814 198.186 80.7172 198.62 81.1226C199.055 81.4991 199.634 81.8177 200.358 82.0784C201.111 82.3101 201.907 82.5418 202.747 82.7735C203.616 83.0052 204.499 83.2803 205.397 83.5989C206.295 83.9175 207.121 84.3374 207.874 84.8587C208.627 85.3801 209.235 86.0607 209.698 86.9006C210.162 87.7115 210.393 88.7541 210.393 90.0285C210.393 91.5055 209.959 92.7654 209.09 93.808C208.221 94.8506 207.135 95.6471 205.832 96.1974C204.528 96.7187 203.196 96.9794 201.835 96.9794C200.126 96.9794 198.417 96.6897 196.709 96.1105C195 95.5023 193.581 94.4452 192.451 92.9391ZM219.665 93.8949C219.665 94.6479 219.419 95.2851 218.926 95.8064C218.434 96.2987 217.811 96.5449 217.058 96.5449C216.305 96.5449 215.683 96.2987 215.19 95.8064C214.698 95.2851 214.452 94.6479 214.452 93.8949V75.9529C214.452 75.1999 214.698 74.5772 215.19 74.0849C215.683 73.5635 216.305 73.3029 217.058 73.3029C217.811 73.3029 218.434 73.5635 218.926 74.0849C219.419 74.5772 219.665 75.1999 219.665 75.9529V93.8949ZM217.015 70.4791C216.03 70.4791 215.335 70.3198 214.93 70.0012C214.524 69.6826 214.321 69.1179 214.321 68.3069V67.4815C214.321 66.6416 214.539 66.0769 214.973 65.7872C215.436 65.4687 216.132 65.3094 217.058 65.3094C218.072 65.3094 218.782 65.4687 219.187 65.7872C219.593 66.1058 219.795 66.6706 219.795 67.4815V68.3069C219.795 69.1468 219.578 69.7261 219.144 70.0447C218.709 70.3343 218 70.4791 217.015 70.4791ZM237.447 72.8685C239.591 72.8685 241.212 73.3174 242.313 74.2152C243.443 75.113 244.21 76.3149 244.615 77.821C245.05 79.298 245.267 80.9489 245.267 82.7735V93.8949C245.267 94.6479 245.021 95.2851 244.529 95.8064C244.036 96.2987 243.414 96.5449 242.661 96.5449C241.908 96.5449 241.285 96.2987 240.792 95.8064C240.3 95.2851 240.054 94.6479 240.054 93.8949V82.7735C240.054 81.8177 239.924 80.9633 239.663 80.2103C239.431 79.4284 238.997 78.8057 238.36 78.3423C237.723 77.8789 236.81 77.6472 235.623 77.6472C234.464 77.6472 233.48 77.8789 232.669 78.3423C231.887 78.8057 231.278 79.4284 230.844 80.2103C230.439 80.9633 230.236 81.8177 230.236 82.7735V93.8949C230.236 94.6479 229.99 95.2851 229.497 95.8064C229.005 96.2987 228.382 96.5449 227.629 96.5449C226.876 96.5449 226.254 96.2987 225.761 95.8064C225.269 95.2851 225.023 94.6479 225.023 93.8949V75.9529C225.023 75.1999 225.269 74.5772 225.761 74.0849C226.254 73.5635 226.876 73.3029 227.629 73.3029C228.382 73.3029 229.005 73.5635 229.497 74.0849C229.99 74.5772 230.236 75.1999 230.236 75.9529V77.821L229.584 77.6906C229.845 77.1983 230.221 76.677 230.714 76.1267C231.206 75.5474 231.785 75.0117 232.451 74.5193C233.118 74.0269 233.871 73.636 234.71 73.3463C235.55 73.0278 236.463 72.8685 237.447 72.8685ZM261.632 96.9794C259.17 96.9794 257.027 96.4725 255.203 95.4588C253.407 94.4162 252.017 93.0116 251.032 91.2449C250.076 89.4782 249.599 87.4798 249.599 85.2497C249.599 82.6431 250.12 80.4276 251.162 78.6029C252.234 76.7494 253.624 75.3302 255.333 74.3455C257.042 73.3608 258.852 72.8685 260.763 72.8685C262.24 72.8685 263.631 73.1726 264.934 73.7808C266.266 74.389 267.439 75.2289 268.453 76.3005C269.466 77.3431 270.263 78.5595 270.842 79.9497C271.45 81.3399 271.754 82.8169 271.754 84.3809C271.726 85.076 271.45 85.6407 270.929 86.0751C270.408 86.5096 269.8 86.7268 269.104 86.7268H252.509L251.206 82.3825H267.15L266.194 83.2513V82.0784C266.136 81.2385 265.832 80.4855 265.281 79.8193C264.76 79.1532 264.094 78.6319 263.283 78.2554C262.501 77.8499 261.661 77.6472 260.763 77.6472C259.895 77.6472 259.084 77.763 258.331 77.9947C257.578 78.2264 256.926 78.6174 256.376 79.1677C255.825 79.718 255.391 80.4565 255.072 81.3833C254.754 82.3101 254.594 83.483 254.594 84.9022C254.594 86.4661 254.913 87.7984 255.55 88.8989C256.216 89.9705 257.056 90.796 258.07 91.3752C259.113 91.9255 260.213 92.2006 261.372 92.2006C262.443 92.2006 263.298 92.1137 263.935 91.94C264.572 91.7662 265.079 91.5635 265.455 91.3318C265.861 91.0711 266.223 90.8539 266.541 90.6801C267.063 90.4195 267.555 90.2891 268.018 90.2891C268.656 90.2891 269.177 90.5063 269.582 90.9408C270.017 91.3752 270.234 91.882 270.234 92.4613C270.234 93.2433 269.829 93.9528 269.018 94.59C268.265 95.2271 267.207 95.7919 265.846 96.2843C264.485 96.7477 263.08 96.9794 261.632 96.9794ZM274.755 92.9391C274.466 92.5337 274.335 92.0124 274.364 91.3752C274.393 90.738 274.77 90.1878 275.494 89.7244C275.957 89.4347 276.45 89.3189 276.971 89.3768C277.492 89.4058 277.999 89.6664 278.492 90.1588C279.331 90.9987 280.215 91.6503 281.142 92.1137C282.068 92.5771 283.227 92.8088 284.617 92.8088C285.051 92.7799 285.529 92.7219 286.051 92.635C286.572 92.5192 287.021 92.2875 287.397 91.94C287.803 91.5635 288.006 90.9987 288.006 90.2457C288.006 89.6085 287.788 89.1017 287.354 88.7252C286.919 88.3487 286.34 88.0301 285.616 87.7694C284.921 87.5088 284.139 87.2626 283.27 87.0309C282.372 86.7702 281.446 86.4806 280.49 86.162C279.563 85.8435 278.709 85.438 277.927 84.9456C277.145 84.4243 276.508 83.7437 276.015 82.9038C275.523 82.0639 275.277 81.0068 275.277 79.7325C275.277 78.2844 275.682 77.0535 276.493 76.0398C277.304 75.0261 278.347 74.2442 279.621 73.6939C280.924 73.1436 282.286 72.8685 283.705 72.8685C284.603 72.8685 285.544 72.9843 286.529 73.216C287.513 73.4187 288.454 73.7663 289.352 74.2586C290.25 74.722 291.003 75.3447 291.611 76.1267C291.93 76.5611 292.118 77.0824 292.176 77.6906C292.234 78.2988 291.959 78.8491 291.351 79.3415C290.916 79.689 290.409 79.8483 289.83 79.8193C289.251 79.7614 288.773 79.5587 288.397 79.2111C287.904 78.574 287.238 78.0671 286.398 77.6906C285.587 77.3141 284.646 77.1259 283.574 77.1259C283.14 77.1259 282.662 77.1838 282.141 77.2997C281.648 77.3865 281.214 77.6038 280.837 77.9513C280.461 78.2699 280.273 78.7912 280.273 79.5152C280.273 80.1814 280.49 80.7172 280.924 81.1226C281.359 81.4991 281.938 81.8177 282.662 82.0784C283.415 82.3101 284.212 82.5418 285.051 82.7735C285.92 83.0052 286.804 83.2803 287.701 83.5989C288.599 83.9175 289.425 84.3374 290.178 84.8587C290.931 85.3801 291.539 86.0607 292.002 86.9006C292.466 87.7115 292.697 88.7541 292.697 90.0285C292.697 91.5055 292.263 92.7654 291.394 93.808C290.525 94.8506 289.439 95.6471 288.136 96.1974C286.833 96.7187 285.5 96.9794 284.139 96.9794C282.43 96.9794 280.722 96.6897 279.013 96.1105C277.304 95.5023 275.885 94.4452 274.755 92.9391ZM295.713 92.9391C295.424 92.5337 295.293 92.0124 295.322 91.3752C295.351 90.738 295.728 90.1878 296.452 89.7244C296.915 89.4347 297.408 89.3189 297.929 89.3768C298.45 89.4058 298.957 89.6664 299.449 90.1588C300.289 90.9987 301.173 91.6503 302.099 92.1137C303.026 92.5771 304.185 92.8088 305.575 92.8088C306.009 92.7799 306.487 92.7219 307.009 92.635C307.53 92.5192 307.979 92.2875 308.355 91.94C308.761 91.5635 308.963 90.9987 308.963 90.2457C308.963 89.6085 308.746 89.1017 308.312 88.7252C307.877 88.3487 307.298 88.0301 306.574 87.7694C305.879 87.5088 305.097 87.2626 304.228 87.0309C303.33 86.7702 302.404 86.4806 301.448 86.162C300.521 85.8435 299.667 85.438 298.885 84.9456C298.103 84.4243 297.466 83.7437 296.973 82.9038C296.481 82.0639 296.235 81.0068 296.235 79.7325C296.235 78.2844 296.64 77.0535 297.451 76.0398C298.262 75.0261 299.305 74.2442 300.579 73.6939C301.882 73.1436 303.243 72.8685 304.663 72.8685C305.56 72.8685 306.502 72.9843 307.486 73.216C308.471 73.4187 309.412 73.7663 310.31 74.2586C311.208 74.722 311.961 75.3447 312.569 76.1267C312.888 76.5611 313.076 77.0824 313.134 77.6906C313.192 78.2988 312.917 78.8491 312.309 79.3415C311.874 79.689 311.367 79.8483 310.788 79.8193C310.209 79.7614 309.731 79.5587 309.354 79.2111C308.862 78.574 308.196 78.0671 307.356 77.6906C306.545 77.3141 305.604 77.1259 304.532 77.1259C304.098 77.1259 303.62 77.1838 303.099 77.2997C302.606 77.3865 302.172 77.6038 301.795 77.9513C301.419 78.2699 301.231 78.7912 301.231 79.5152C301.231 80.1814 301.448 80.7172 301.882 81.1226C302.317 81.4991 302.896 81.8177 303.62 82.0784C304.373 82.3101 305.169 82.5418 306.009 82.7735C306.878 83.0052 307.762 83.2803 308.659 83.5989C309.557 83.9175 310.383 84.3374 311.136 84.8587C311.889 85.3801 312.497 86.0607 312.96 86.9006C313.424 87.7115 313.655 88.7541 313.655 90.0285C313.655 91.5055 313.221 92.7654 312.352 93.808C311.483 94.8506 310.397 95.6471 309.094 96.1974C307.79 96.7187 306.458 96.9794 305.097 96.9794C303.388 96.9794 301.68 96.6897 299.971 96.1105C298.262 95.5023 296.843 94.4452 295.713 92.9391ZM143.005 138.545C142.194 138.545 141.528 138.299 141.007 137.806C140.514 137.285 140.268 136.648 140.268 135.895V110.785C140.268 110.032 140.514 109.409 141.007 108.917C141.528 108.395 142.165 108.135 142.918 108.135H157.037C157.79 108.135 158.413 108.381 158.905 108.873C159.426 109.337 159.687 109.945 159.687 110.698C159.687 111.335 159.426 111.9 158.905 112.392C158.413 112.885 157.79 113.131 157.037 113.131H145.307L145.698 112.609V121.341L145.394 120.777H155.082C155.835 120.777 156.458 121.023 156.95 121.515C157.471 121.979 157.732 122.587 157.732 123.34C157.732 123.977 157.471 124.542 156.95 125.034C156.458 125.526 155.835 125.773 155.082 125.773H145.307L145.698 125.382V135.895C145.698 136.648 145.423 137.285 144.873 137.806C144.352 138.299 143.729 138.545 143.005 138.545ZM185.921 126.946C185.921 129.321 185.385 131.42 184.314 133.245C183.271 135.041 181.852 136.445 180.056 137.459C178.29 138.473 176.306 138.979 174.105 138.979C171.904 138.979 169.905 138.473 168.11 137.459C166.343 136.445 164.924 135.041 163.852 133.245C162.81 131.42 162.288 129.321 162.288 126.946C162.288 124.571 162.81 122.485 163.852 120.69C164.924 118.865 166.343 117.446 168.11 116.432C169.905 115.39 171.904 114.868 174.105 114.868C176.306 114.868 178.29 115.39 180.056 116.432C181.852 117.446 183.271 118.865 184.314 120.69C185.385 122.485 185.921 124.571 185.921 126.946ZM180.708 126.946C180.708 125.469 180.404 124.194 179.796 123.123C179.216 122.022 178.42 121.168 177.406 120.559C176.422 119.951 175.321 119.647 174.105 119.647C172.888 119.647 171.773 119.951 170.76 120.559C169.775 121.168 168.978 122.022 168.37 123.123C167.791 124.194 167.501 125.469 167.501 126.946C167.501 128.394 167.791 129.668 168.37 130.769C168.978 131.84 169.775 132.68 170.76 133.288C171.773 133.897 172.888 134.201 174.105 134.201C175.321 134.201 176.422 133.897 177.406 133.288C178.42 132.68 179.216 131.84 179.796 130.769C180.404 129.668 180.708 128.394 180.708 126.946ZM200.399 114.868C202.05 114.868 203.483 115.042 204.7 115.39C205.945 115.737 206.901 116.23 207.567 116.867C208.262 117.475 208.61 118.214 208.61 119.082C208.61 119.662 208.436 120.212 208.088 120.733C207.741 121.226 207.234 121.472 206.568 121.472C206.104 121.472 205.713 121.414 205.395 121.298C205.105 121.153 204.845 120.979 204.613 120.777C204.381 120.574 204.106 120.386 203.787 120.212C203.498 120.038 203.049 119.908 202.441 119.821C201.862 119.705 201.427 119.647 201.137 119.647C199.66 119.647 198.401 119.966 197.358 120.603C196.344 121.24 195.562 122.109 195.012 123.21C194.462 124.281 194.187 125.526 194.187 126.946C194.187 128.336 194.462 129.581 195.012 130.682C195.591 131.753 196.373 132.608 197.358 133.245C198.372 133.882 199.53 134.201 200.833 134.201C201.557 134.201 202.18 134.157 202.701 134.07C203.223 133.983 203.657 133.853 204.005 133.679C204.41 133.448 204.772 133.201 205.091 132.941C205.409 132.68 205.887 132.55 206.524 132.55C207.277 132.55 207.857 132.796 208.262 133.288C208.668 133.752 208.87 134.331 208.87 135.026C208.87 135.75 208.465 136.416 207.654 137.024C206.843 137.604 205.771 138.082 204.439 138.458C203.136 138.806 201.717 138.979 200.182 138.979C197.894 138.979 195.91 138.458 194.23 137.415C192.55 136.344 191.247 134.896 190.32 133.071C189.422 131.246 188.973 129.205 188.973 126.946C188.973 124.571 189.451 122.485 190.407 120.69C191.392 118.865 192.738 117.446 194.447 116.432C196.185 115.39 198.169 114.868 200.399 114.868ZM229.881 115.303C230.635 115.303 231.257 115.564 231.75 116.085C232.242 116.577 232.488 117.2 232.488 117.953V128.987C232.488 132.057 231.634 134.49 229.925 136.286C228.216 138.082 225.754 138.979 222.54 138.979C219.325 138.979 216.863 138.082 215.154 136.286C213.475 134.49 212.635 132.057 212.635 128.987V117.953C212.635 117.2 212.881 116.577 213.373 116.085C213.865 115.564 214.488 115.303 215.241 115.303C215.994 115.303 216.617 115.564 217.109 116.085C217.602 116.577 217.848 117.2 217.848 117.953V128.987C217.848 130.754 218.239 132.072 219.021 132.941C219.803 133.781 220.976 134.201 222.54 134.201C224.133 134.201 225.32 133.781 226.102 132.941C226.884 132.072 227.275 130.754 227.275 128.987V117.953C227.275 117.2 227.521 116.577 228.013 116.085C228.506 115.564 229.128 115.303 229.881 115.303ZM236.785 134.939C236.496 134.534 236.365 134.012 236.394 133.375C236.423 132.738 236.8 132.188 237.524 131.724C237.987 131.435 238.479 131.319 239.001 131.377C239.522 131.406 240.029 131.666 240.521 132.159C241.361 132.999 242.245 133.65 243.171 134.114C244.098 134.577 245.257 134.809 246.647 134.809C247.081 134.78 247.559 134.722 248.08 134.635C248.602 134.519 249.051 134.288 249.427 133.94C249.833 133.563 250.035 132.999 250.035 132.246C250.035 131.609 249.818 131.102 249.384 130.725C248.949 130.349 248.37 130.03 247.646 129.769C246.951 129.509 246.169 129.263 245.3 129.031C244.402 128.77 243.475 128.481 242.52 128.162C241.593 127.843 240.739 127.438 239.957 126.946C239.175 126.424 238.537 125.744 238.045 124.904C237.553 124.064 237.307 123.007 237.307 121.732C237.307 120.284 237.712 119.053 238.523 118.04C239.334 117.026 240.376 116.244 241.651 115.694C242.954 115.144 244.315 114.868 245.734 114.868C246.632 114.868 247.574 114.984 248.558 115.216C249.543 115.419 250.484 115.766 251.382 116.259C252.28 116.722 253.033 117.345 253.641 118.127C253.96 118.561 254.148 119.082 254.206 119.691C254.264 120.299 253.989 120.849 253.38 121.341C252.946 121.689 252.439 121.848 251.86 121.819C251.281 121.761 250.803 121.559 250.426 121.211C249.934 120.574 249.268 120.067 248.428 119.691C247.617 119.314 246.676 119.126 245.604 119.126C245.17 119.126 244.692 119.184 244.171 119.3C243.678 119.387 243.244 119.604 242.867 119.951C242.491 120.27 242.302 120.791 242.302 121.515C242.302 122.181 242.52 122.717 242.954 123.123C243.389 123.499 243.968 123.818 244.692 124.078C245.445 124.31 246.241 124.542 247.081 124.773C247.95 125.005 248.833 125.28 249.731 125.599C250.629 125.917 251.454 126.337 252.207 126.859C252.961 127.38 253.569 128.061 254.032 128.901C254.495 129.712 254.727 130.754 254.727 132.028C254.727 133.506 254.293 134.765 253.424 135.808C252.555 136.851 251.469 137.647 250.166 138.197C248.862 138.719 247.53 138.979 246.169 138.979C244.46 138.979 242.751 138.69 241.043 138.11C239.334 137.502 237.915 136.445 236.785 134.939Z" fill="#3D319D"/>
</svg>
