<svg width="2757" height="1325" viewBox="0 0 2757 1325" fill="none" xmlns="http://www.w3.org/2000/svg">
<path d="M735.563 1014.14C743.825 1009.19 750.709 997.633 750.709 988.005V662.025C750.709 652.397 743.825 640.568 735.563 635.891L453.016 473.039C444.754 468.362 430.985 468.362 422.724 473.039L140.452 635.616C132.19 640.293 125.306 652.122 125.306 661.75V710.165C125.306 719.793 132.19 723.645 140.452 718.693L422.999 553.64C431.261 548.688 445.03 548.688 453.291 553.64L665.615 676.054C673.876 681.006 680.761 692.56 680.761 702.188V947.292C680.761 956.92 673.876 968.749 665.615 973.425L453.016 1096.12C444.754 1100.79 430.985 1100.79 422.724 1096.12L210.125 973.425C201.863 968.474 194.979 956.92 194.979 947.292V784.99C194.979 775.361 188.094 771.51 179.832 776.187L140.452 799.569C132.19 804.521 125.306 816.35 125.306 825.703V987.73C125.306 997.358 132.19 1009.19 140.452 1013.86L422.999 1176.72C431.261 1181.39 445.03 1181.39 453.291 1176.72L735.563 1014.14Z" fill="#3D319D"/>
<path d="M453.011 328.609C444.75 323.933 430.98 323.933 422.719 328.609L210.12 451.299C201.859 456.25 194.974 452.124 194.974 442.496V11.1489C194.974 1.52081 188.089 -2.33043 179.828 2.62117L140.172 26.2788C131.91 31.2304 125.026 43.0593 125.026 52.6874V560.509C125.026 570.137 131.91 573.989 140.172 569.312L422.443 408.935C430.705 404.259 444.474 404.259 452.736 408.935L790.36 603.698C798.622 608.375 805.507 620.204 805.507 629.832V1019.36C805.507 1028.99 798.622 1040.81 790.36 1045.49L452.736 1240.25C444.474 1244.93 430.705 1244.93 422.443 1240.25L85.0945 1046.04C76.8329 1041.36 69.9483 1029.54 69.9483 1019.91V85.1479C69.9483 75.5198 63.0636 71.6685 54.802 76.6201L15.1463 100.278C6.88467 105.229 0 117.058 0 126.686L0 1060.07C0 1069.7 6.88467 1081.53 15.1463 1086.2L422.719 1321.41C430.98 1326.08 444.75 1326.08 453.011 1321.41L860.584 1086.2C868.846 1081.25 875.73 1069.7 875.73 1060.07V589.669C875.73 580.041 868.846 568.212 860.584 563.535L453.011 328.609Z" fill="#3D319D"/>
<path d="M1117.47 213.138C1141.96 213.138 1160.2 218.878 1172.19 230.358C1184.18 241.838 1190.18 258.802 1190.18 281.252C1190.18 293.242 1187.24 303.829 1181.38 313.012C1175.51 321.941 1166.84 328.957 1155.36 334.059C1143.88 338.906 1129.72 341.329 1112.88 341.329L1114.41 324.11C1122.32 324.11 1131.38 325.257 1141.58 327.553C1151.78 329.594 1161.61 333.421 1171.04 339.033C1180.74 344.39 1188.65 352.044 1194.77 361.993C1201.15 371.687 1204.34 384.187 1204.34 399.493C1204.34 416.331 1201.53 430.106 1195.92 440.821C1190.56 451.535 1183.42 459.826 1174.49 465.694C1165.56 471.561 1155.99 475.643 1145.79 477.939C1135.58 479.98 1125.76 481 1116.32 481H1021.04C1014.41 481 1008.8 478.832 1004.2 474.495C999.868 469.903 997.699 464.291 997.699 457.658V236.48C997.699 229.848 999.868 224.363 1004.2 220.026C1008.8 215.434 1014.41 213.138 1021.04 213.138H1117.47ZM1110.58 258.292H1042.47L1047.45 252.169V321.431L1042.85 317.987H1111.73C1119.13 317.987 1125.76 315.563 1131.63 310.716C1137.5 305.869 1140.43 298.854 1140.43 289.67C1140.43 278.701 1137.63 270.792 1132.01 265.945C1126.66 260.843 1119.51 258.292 1110.58 258.292ZM1113.65 363.141H1044L1047.45 360.08V440.821L1043.62 436.994H1116.32C1128.06 436.994 1137.37 433.933 1144.26 427.81C1151.15 421.433 1154.59 411.994 1154.59 399.493C1154.59 388.014 1152.29 379.723 1147.7 374.621C1143.11 369.518 1137.63 366.33 1131.25 365.054C1124.87 363.779 1119 363.141 1113.65 363.141ZM1338.76 484.827C1317.08 484.827 1298.2 480.362 1282.13 471.434C1266.31 462.25 1254.07 449.877 1245.39 434.316C1236.98 418.754 1232.77 401.152 1232.77 381.508C1232.77 358.549 1237.36 339.033 1246.54 322.962C1255.98 306.635 1268.23 294.135 1283.28 285.461C1298.33 276.787 1314.27 272.45 1331.11 272.45C1344.12 272.45 1356.37 275.129 1367.85 280.486C1379.58 285.844 1389.91 293.242 1398.84 302.681C1407.77 311.864 1414.78 322.579 1419.89 334.824C1425.24 347.069 1427.92 360.08 1427.92 373.855C1427.67 379.978 1425.24 384.952 1420.65 388.779C1416.06 392.606 1410.7 394.519 1404.58 394.519H1258.4L1246.92 356.253H1387.36L1378.94 363.906V353.574C1378.43 346.176 1375.75 339.543 1370.91 333.676C1366.31 327.809 1360.45 323.217 1353.3 319.9C1346.42 316.329 1339.02 314.543 1331.11 314.543C1323.46 314.543 1316.31 315.563 1309.68 317.604C1303.05 319.645 1297.31 323.089 1292.46 327.936C1287.61 332.783 1283.79 339.288 1280.98 347.452C1278.18 355.615 1276.77 365.947 1276.77 378.447C1276.77 392.223 1279.58 403.958 1285.19 413.652C1291.06 423.091 1298.46 430.361 1307.38 435.463C1316.57 440.311 1326.26 442.734 1336.47 442.734C1345.91 442.734 1353.43 441.969 1359.04 440.438C1364.66 438.907 1369.12 437.122 1372.44 435.081C1376.01 432.785 1379.2 430.872 1382 429.341C1386.6 427.045 1390.93 425.897 1395.01 425.897C1400.63 425.897 1405.22 427.81 1408.79 431.637C1412.62 435.463 1414.53 439.928 1414.53 445.03C1414.53 451.918 1410.96 458.168 1403.82 463.78C1397.18 469.393 1387.87 474.367 1375.88 478.704C1363.89 482.786 1351.52 484.827 1338.76 484.827ZM1117.47 579.138C1141.96 579.138 1160.2 584.878 1172.19 596.358C1184.18 607.838 1190.18 624.802 1190.18 647.252C1190.18 659.242 1187.24 669.829 1181.38 679.012C1175.51 687.941 1166.84 694.957 1155.36 700.059C1143.88 704.906 1129.72 707.329 1112.88 707.329L1114.41 690.11C1122.32 690.11 1131.38 691.257 1141.58 693.553C1151.78 695.594 1161.61 699.421 1171.04 705.033C1180.74 710.39 1188.65 718.044 1194.77 727.993C1201.15 737.687 1204.34 750.187 1204.34 765.493C1204.34 782.331 1201.53 796.106 1195.92 806.821C1190.56 817.535 1183.42 825.826 1174.49 831.694C1165.56 837.561 1155.99 841.643 1145.79 843.939C1135.58 845.98 1125.76 847 1116.32 847H1021.04C1014.41 847 1008.8 844.832 1004.2 840.495C999.868 835.903 997.699 830.291 997.699 823.658V602.48C997.699 595.848 999.868 590.363 1004.2 586.026C1008.8 581.434 1014.41 579.138 1021.04 579.138H1117.47ZM1110.58 624.292H1042.47L1047.45 618.169V687.431L1042.85 683.987H1111.73C1119.13 683.987 1125.76 681.563 1131.63 676.716C1137.5 671.869 1140.43 664.854 1140.43 655.67C1140.43 644.701 1137.63 636.792 1132.01 631.945C1126.66 626.843 1119.51 624.292 1110.58 624.292ZM1113.65 729.141H1044L1047.45 726.08V806.821L1043.62 802.994H1116.32C1128.06 802.994 1137.37 799.933 1144.26 793.81C1151.15 787.433 1154.59 777.994 1154.59 765.493C1154.59 754.014 1152.29 745.723 1147.7 740.621C1143.11 735.518 1137.63 732.33 1131.25 731.054C1124.87 729.779 1119 729.141 1113.65 729.141ZM1396.54 642.277C1403.17 642.277 1408.65 644.573 1412.99 649.165C1417.33 653.502 1419.5 658.987 1419.5 665.619V762.815C1419.5 789.856 1411.97 811.285 1396.92 827.102C1381.87 842.918 1360.18 850.827 1331.87 850.827C1303.55 850.827 1281.87 842.918 1266.81 827.102C1252.02 811.285 1244.62 789.856 1244.62 762.815V665.619C1244.62 658.987 1246.79 653.502 1251.12 649.165C1255.46 644.573 1260.95 642.277 1267.58 642.277C1274.21 642.277 1279.7 644.573 1284.03 649.165C1288.37 653.502 1290.54 658.987 1290.54 665.619V762.815C1290.54 778.376 1293.98 789.984 1300.87 797.637C1307.76 805.035 1318.09 808.734 1331.87 808.734C1345.9 808.734 1356.36 805.035 1363.24 797.637C1370.13 789.984 1373.58 778.376 1373.58 762.815V665.619C1373.58 658.987 1375.74 653.502 1380.08 649.165C1384.42 644.573 1389.9 642.277 1396.54 642.277ZM1457.35 815.239C1454.79 811.668 1453.65 807.076 1453.9 801.463C1454.16 795.851 1457.47 791.004 1463.85 786.922C1467.93 784.371 1472.27 783.351 1476.86 783.861C1481.45 784.116 1485.92 786.412 1490.25 790.749C1497.65 798.147 1505.43 803.887 1513.6 807.969C1521.76 812.05 1531.96 814.091 1544.21 814.091C1548.04 813.836 1552.25 813.326 1556.84 812.561C1561.43 811.54 1565.38 809.499 1568.7 806.438C1572.27 803.122 1574.06 798.147 1574.06 791.514C1574.06 785.902 1572.14 781.438 1568.32 778.121C1564.49 774.805 1559.39 771.999 1553.01 769.703C1546.89 767.407 1540 765.238 1532.35 763.198C1524.44 760.902 1516.28 758.35 1507.86 755.544C1499.69 752.738 1492.17 749.167 1485.28 744.83C1478.39 740.238 1472.78 734.243 1468.44 726.845C1464.11 719.447 1461.94 710.135 1461.94 698.911C1461.94 686.155 1465.51 675.313 1472.65 666.385C1479.79 657.456 1488.98 650.568 1500.2 645.721C1511.68 640.874 1523.67 638.45 1536.17 638.45C1544.08 638.45 1552.37 639.471 1561.05 641.512C1569.72 643.297 1578.01 646.359 1585.92 650.696C1593.83 654.777 1600.46 660.262 1605.82 667.15C1608.62 670.977 1610.28 675.568 1610.79 680.926C1611.3 686.283 1608.88 691.13 1603.52 695.467C1599.69 698.528 1595.23 699.931 1590.13 699.676C1585.03 699.166 1580.82 697.38 1577.5 694.319C1573.16 688.706 1567.3 684.242 1559.9 680.926C1552.76 677.609 1544.46 675.951 1535.03 675.951C1531.2 675.951 1526.99 676.461 1522.4 677.482C1518.06 678.247 1514.23 680.16 1510.92 683.222C1507.6 686.028 1505.94 690.62 1505.94 696.997C1505.94 702.865 1507.86 707.584 1511.68 711.156C1515.51 714.472 1520.61 717.278 1526.99 719.574C1533.62 721.615 1540.64 723.656 1548.04 725.697C1555.69 727.738 1563.47 730.161 1571.38 732.967C1579.29 735.774 1586.56 739.473 1593.19 744.065C1599.82 748.656 1605.18 754.651 1609.26 762.05C1613.34 769.193 1615.38 778.376 1615.38 789.601C1615.38 802.611 1611.56 813.709 1603.9 822.892C1596.25 832.076 1586.68 839.092 1575.2 843.939C1563.72 848.531 1551.99 850.827 1540 850.827C1524.95 850.827 1509.9 848.276 1494.85 843.173C1479.79 837.816 1467.29 828.505 1457.35 815.239ZM1697.05 823.658C1697.05 830.291 1694.88 835.903 1690.55 840.495C1686.21 844.832 1680.73 847 1674.09 847C1667.46 847 1661.97 844.832 1657.64 840.495C1653.3 835.903 1651.13 830.291 1651.13 823.658V665.619C1651.13 658.987 1653.3 653.502 1657.64 649.165C1661.97 644.573 1667.46 642.277 1674.09 642.277C1680.73 642.277 1686.21 644.573 1690.55 649.165C1694.88 653.502 1697.05 658.987 1697.05 665.619V823.658ZM1673.71 617.404C1665.04 617.404 1658.91 616.001 1655.34 613.195C1651.77 610.389 1649.98 605.414 1649.98 598.271V591.001C1649.98 583.603 1651.9 578.628 1655.72 576.077C1659.81 573.271 1665.93 571.868 1674.09 571.868C1683.02 571.868 1689.27 573.271 1692.84 576.077C1696.41 578.883 1698.2 583.858 1698.2 591.001V598.271C1698.2 605.669 1696.29 610.771 1692.46 613.578C1688.63 616.129 1682.38 617.404 1673.71 617.404ZM1853.69 638.45C1872.56 638.45 1886.85 642.405 1896.54 650.313C1906.49 658.221 1913.25 668.808 1916.82 682.074C1920.65 695.084 1922.56 709.625 1922.56 725.697V823.658C1922.56 830.291 1920.4 835.903 1916.06 840.495C1911.72 844.832 1906.24 847 1899.6 847C1892.97 847 1887.49 844.832 1883.15 840.495C1878.81 835.903 1876.64 830.291 1876.64 823.658V725.697C1876.64 717.278 1875.5 709.753 1873.2 703.12C1871.16 696.232 1867.33 690.747 1861.72 686.666C1856.11 682.584 1848.07 680.543 1837.61 680.543C1827.41 680.543 1818.74 682.584 1811.59 686.666C1804.7 690.747 1799.35 696.232 1795.52 703.12C1791.95 709.753 1790.16 717.278 1790.16 725.697V823.658C1790.16 830.291 1788 835.903 1783.66 840.495C1779.32 844.832 1773.84 847 1767.2 847C1760.57 847 1755.09 844.832 1750.75 840.495C1746.41 835.903 1744.24 830.291 1744.24 823.658V665.619C1744.24 658.987 1746.41 653.502 1750.75 649.165C1755.09 644.573 1760.57 642.277 1767.2 642.277C1773.84 642.277 1779.32 644.573 1783.66 649.165C1788 653.502 1790.16 658.987 1790.16 665.619V682.074L1784.42 680.926C1786.72 676.589 1790.04 671.997 1794.37 667.15C1798.71 662.048 1803.81 657.328 1809.68 652.992C1815.55 648.655 1822.18 645.211 1829.58 642.66C1836.98 639.854 1845.01 638.45 1853.69 638.45ZM2066.71 850.827C2045.03 850.827 2026.15 846.362 2010.08 837.434C1994.26 828.25 1982.02 815.877 1973.34 800.316C1964.93 784.754 1960.72 767.152 1960.72 747.508C1960.72 724.549 1965.31 705.033 1974.49 688.962C1983.93 672.635 1996.18 660.135 2011.23 651.461C2026.28 642.787 2042.22 638.45 2059.06 638.45C2072.07 638.45 2084.32 641.129 2095.8 646.486C2107.53 651.844 2117.86 659.242 2126.79 668.681C2135.72 677.864 2142.73 688.579 2147.84 700.824C2153.19 713.069 2155.87 726.08 2155.87 739.855C2155.62 745.978 2153.19 750.952 2148.6 754.779C2144.01 758.606 2138.65 760.519 2132.53 760.519H1986.35L1974.87 722.253H2115.31L2106.89 729.906V719.574C2106.38 712.176 2103.7 705.543 2098.86 699.676C2094.26 693.809 2088.4 689.217 2081.25 685.9C2074.37 682.329 2066.97 680.543 2059.06 680.543C2051.41 680.543 2044.26 681.563 2037.63 683.604C2031 685.645 2025.26 689.089 2020.41 693.936C2015.56 698.783 2011.74 705.288 2008.93 713.452C2006.13 721.615 2004.72 731.947 2004.72 744.447C2004.72 758.223 2007.53 769.958 2013.14 779.652C2019.01 789.091 2026.41 796.361 2035.34 801.463C2044.52 806.311 2054.21 808.734 2064.42 808.734C2073.86 808.734 2081.38 807.969 2086.99 806.438C2092.61 804.907 2097.07 803.122 2100.39 801.081C2103.96 798.785 2107.15 796.872 2109.95 795.341C2114.55 793.045 2118.88 791.897 2122.96 791.897C2128.58 791.897 2133.17 793.81 2136.74 797.637C2140.57 801.463 2142.48 805.928 2142.48 811.03C2142.48 817.918 2138.91 824.168 2131.77 829.78C2125.13 835.393 2115.82 840.367 2103.83 844.704C2091.84 848.786 2079.47 850.827 2066.71 850.827ZM2182.31 815.239C2179.76 811.668 2178.61 807.076 2178.86 801.463C2179.12 795.851 2182.43 791.004 2188.81 786.922C2192.89 784.371 2197.23 783.351 2201.82 783.861C2206.41 784.116 2210.88 786.412 2215.22 790.749C2222.61 798.147 2230.39 803.887 2238.56 807.969C2246.72 812.05 2256.92 814.091 2269.17 814.091C2273 813.836 2277.21 813.326 2281.8 812.561C2286.39 811.54 2290.34 809.499 2293.66 806.438C2297.23 803.122 2299.02 798.147 2299.02 791.514C2299.02 785.902 2297.1 781.438 2293.28 778.121C2289.45 774.805 2284.35 771.999 2277.97 769.703C2271.85 767.407 2264.96 765.238 2257.31 763.198C2249.4 760.902 2241.24 758.35 2232.82 755.544C2224.65 752.738 2217.13 749.167 2210.24 744.83C2203.35 740.238 2197.74 734.243 2193.4 726.845C2189.07 719.447 2186.9 710.135 2186.9 698.911C2186.9 686.155 2190.47 675.313 2197.61 666.385C2204.76 657.456 2213.94 650.568 2225.16 645.721C2236.64 640.874 2248.63 638.45 2261.13 638.45C2269.04 638.45 2277.33 639.471 2286.01 641.512C2294.68 643.297 2302.97 646.359 2310.88 650.696C2318.79 654.777 2325.42 660.262 2330.78 667.15C2333.58 670.977 2335.24 675.568 2335.75 680.926C2336.26 686.283 2333.84 691.13 2328.48 695.467C2324.66 698.528 2320.19 699.931 2315.09 699.676C2309.99 699.166 2305.78 697.38 2302.46 694.319C2298.12 688.706 2292.26 684.242 2284.86 680.926C2277.72 677.609 2269.43 675.951 2259.99 675.951C2256.16 675.951 2251.95 676.461 2247.36 677.482C2243.02 678.247 2239.2 680.16 2235.88 683.222C2232.56 686.028 2230.9 690.62 2230.9 696.997C2230.9 702.865 2232.82 707.584 2236.64 711.156C2240.47 714.472 2245.57 717.278 2251.95 719.574C2258.58 721.615 2265.6 723.656 2273 725.697C2280.65 727.738 2288.43 730.161 2296.34 732.967C2304.25 735.774 2311.52 739.473 2318.15 744.065C2324.78 748.656 2330.14 754.651 2334.22 762.05C2338.3 769.193 2340.34 778.376 2340.34 789.601C2340.34 802.611 2336.52 813.709 2328.87 822.892C2321.21 832.076 2311.65 839.092 2300.17 843.939C2288.69 848.531 2276.95 850.827 2264.96 850.827C2249.91 850.827 2234.86 848.276 2219.81 843.173C2204.76 837.816 2192.26 828.505 2182.31 815.239ZM2366.91 815.239C2364.36 811.668 2363.21 807.076 2363.47 801.463C2363.72 795.851 2367.04 791.004 2373.41 786.922C2377.5 784.371 2381.83 783.351 2386.43 783.861C2391.02 784.116 2395.48 786.412 2399.82 790.749C2407.22 798.147 2415 803.887 2423.16 807.969C2431.32 812.05 2441.53 814.091 2453.77 814.091C2457.6 813.836 2461.81 813.326 2466.4 812.561C2470.99 811.54 2474.95 809.499 2478.26 806.438C2481.84 803.122 2483.62 798.147 2483.62 791.514C2483.62 785.902 2481.71 781.438 2477.88 778.121C2474.05 774.805 2468.95 771.999 2462.57 769.703C2456.45 767.407 2449.56 765.238 2441.91 763.198C2434 760.902 2425.84 758.35 2417.42 755.544C2409.26 752.738 2401.73 749.167 2394.84 744.83C2387.96 740.238 2382.34 734.243 2378.01 726.845C2373.67 719.447 2371.5 710.135 2371.5 698.911C2371.5 686.155 2375.07 675.313 2382.22 666.385C2389.36 657.456 2398.54 650.568 2409.77 645.721C2421.25 640.874 2433.24 638.45 2445.74 638.45C2453.65 638.45 2461.94 639.471 2470.61 641.512C2479.28 643.297 2487.58 646.359 2495.48 650.696C2503.39 654.777 2510.02 660.262 2515.38 667.15C2518.19 670.977 2519.85 675.568 2520.36 680.926C2520.87 686.283 2518.44 691.13 2513.09 695.467C2509.26 698.528 2504.79 699.931 2499.69 699.676C2494.59 699.166 2490.38 697.38 2487.06 694.319C2482.73 688.706 2476.86 684.242 2469.46 680.926C2462.32 677.609 2454.03 675.951 2444.59 675.951C2440.76 675.951 2436.55 676.461 2431.96 677.482C2427.63 678.247 2423.8 680.16 2420.48 683.222C2417.17 686.028 2415.51 690.62 2415.51 696.997C2415.51 702.865 2417.42 707.584 2421.25 711.156C2425.07 714.472 2430.18 717.278 2436.55 719.574C2443.19 721.615 2450.2 723.656 2457.6 725.697C2465.25 727.738 2473.03 730.161 2480.94 732.967C2488.85 735.774 2496.12 739.473 2502.75 744.065C2509.39 748.656 2514.74 754.651 2518.83 762.05C2522.91 769.193 2524.95 778.376 2524.95 789.601C2524.95 802.611 2521.12 813.709 2513.47 822.892C2505.82 832.076 2496.25 839.092 2484.77 843.939C2473.29 848.531 2461.55 850.827 2449.56 850.827C2434.51 850.827 2419.46 848.276 2404.41 843.173C2389.36 837.816 2376.86 828.505 2366.91 815.239ZM1021.81 1213C1014.66 1213 1008.8 1210.83 1004.2 1206.49C999.868 1201.9 997.699 1196.29 997.699 1189.66V968.48C997.699 961.848 999.868 956.363 1004.2 952.026C1008.8 947.434 1014.41 945.138 1021.04 945.138H1145.41C1152.04 945.138 1157.52 947.307 1161.86 951.643C1166.45 955.725 1168.75 961.082 1168.75 967.715C1168.75 973.327 1166.45 978.302 1161.86 982.639C1157.52 986.976 1152.04 989.144 1145.41 989.144H1042.09L1045.53 984.552V1061.47L1042.85 1056.49H1128.19C1134.82 1056.49 1140.3 1058.66 1144.64 1063C1149.23 1067.08 1151.53 1072.44 1151.53 1079.07C1151.53 1084.68 1149.23 1089.66 1144.64 1093.99C1140.3 1098.33 1134.82 1100.5 1128.19 1100.5H1042.09L1045.53 1097.05V1189.66C1045.53 1196.29 1043.11 1201.9 1038.26 1206.49C1033.67 1210.83 1028.18 1213 1021.81 1213ZM1399.83 1110.83C1399.83 1131.75 1395.11 1150.24 1385.67 1166.32C1376.48 1182.13 1363.98 1194.5 1348.17 1203.43C1332.61 1212.36 1315.13 1216.83 1295.74 1216.83C1276.36 1216.83 1258.75 1212.36 1242.94 1203.43C1227.38 1194.5 1214.87 1182.13 1205.44 1166.32C1196.25 1150.24 1191.66 1131.75 1191.66 1110.83C1191.66 1089.91 1196.25 1071.54 1205.44 1055.73C1214.87 1039.66 1227.38 1027.15 1242.94 1018.23C1258.75 1009.04 1276.36 1004.45 1295.74 1004.45C1315.13 1004.45 1332.61 1009.04 1348.17 1018.23C1363.98 1027.15 1376.48 1039.66 1385.67 1055.73C1395.11 1071.54 1399.83 1089.91 1399.83 1110.83ZM1353.91 1110.83C1353.91 1097.82 1351.23 1086.59 1345.87 1077.16C1340.77 1067.46 1333.75 1059.94 1324.83 1054.58C1316.15 1049.22 1306.46 1046.54 1295.74 1046.54C1285.03 1046.54 1275.21 1049.22 1266.28 1054.58C1257.61 1059.94 1250.59 1067.46 1245.23 1077.16C1240.13 1086.59 1237.58 1097.82 1237.58 1110.83C1237.58 1123.59 1240.13 1134.81 1245.23 1144.5C1250.59 1153.94 1257.61 1161.34 1266.28 1166.7C1275.21 1172.06 1285.03 1174.73 1295.74 1174.73C1306.46 1174.73 1316.15 1172.06 1324.83 1166.7C1333.75 1161.34 1340.77 1153.94 1345.87 1144.5C1351.23 1134.81 1353.91 1123.59 1353.91 1110.83ZM1527.35 1004.45C1541.89 1004.45 1554.52 1005.98 1565.23 1009.04C1576.2 1012.1 1584.62 1016.44 1590.49 1022.05C1596.61 1027.41 1599.67 1033.92 1599.67 1041.57C1599.67 1046.67 1598.14 1051.52 1595.08 1056.11C1592.02 1060.45 1587.56 1062.61 1581.69 1062.61C1577.61 1062.61 1574.16 1062.1 1571.36 1061.08C1568.81 1059.81 1566.51 1058.28 1564.47 1056.49C1562.43 1054.71 1560 1053.05 1557.2 1051.52C1554.65 1049.99 1550.69 1048.84 1545.34 1048.07C1540.23 1047.05 1536.41 1046.54 1533.86 1046.54C1520.85 1046.54 1509.75 1049.35 1500.57 1054.96C1491.64 1060.57 1484.75 1068.23 1479.9 1077.92C1475.05 1087.36 1472.63 1098.33 1472.63 1110.83C1472.63 1123.07 1475.05 1134.04 1479.9 1143.74C1485 1153.18 1491.89 1160.7 1500.57 1166.32C1509.49 1171.93 1519.7 1174.73 1531.18 1174.73C1537.56 1174.73 1543.04 1174.35 1547.63 1173.59C1552.22 1172.82 1556.05 1171.67 1559.11 1170.14C1562.68 1168.1 1565.87 1165.93 1568.68 1163.64C1571.48 1161.34 1575.69 1160.19 1581.31 1160.19C1587.94 1160.19 1593.04 1162.36 1596.61 1166.7C1600.18 1170.78 1601.97 1175.88 1601.97 1182C1601.97 1188.38 1598.4 1194.25 1591.26 1199.61C1584.11 1204.71 1574.67 1208.92 1562.94 1212.23C1551.46 1215.3 1538.96 1216.83 1525.44 1216.83C1505.28 1216.83 1487.81 1212.23 1473.01 1203.05C1458.22 1193.61 1446.74 1180.86 1438.57 1164.78C1430.67 1148.71 1426.71 1130.73 1426.71 1110.83C1426.71 1089.91 1430.92 1071.54 1439.34 1055.73C1448.01 1039.66 1459.88 1027.15 1474.93 1018.23C1490.23 1009.04 1507.71 1004.45 1527.35 1004.45ZM1787.04 1008.28C1793.68 1008.28 1799.16 1010.57 1803.5 1015.16C1807.83 1019.5 1810 1024.99 1810 1031.62V1128.81C1810 1155.86 1802.48 1177.29 1787.43 1193.1C1772.37 1208.92 1750.69 1216.83 1722.37 1216.83C1694.06 1216.83 1672.37 1208.92 1657.32 1193.1C1642.52 1177.29 1635.13 1155.86 1635.13 1128.81V1031.62C1635.13 1024.99 1637.3 1019.5 1641.63 1015.16C1645.97 1010.57 1651.45 1008.28 1658.09 1008.28C1664.72 1008.28 1670.2 1010.57 1674.54 1015.16C1678.88 1019.5 1681.05 1024.99 1681.05 1031.62V1128.81C1681.05 1144.38 1684.49 1155.98 1691.38 1163.64C1698.27 1171.03 1708.6 1174.73 1722.37 1174.73C1736.4 1174.73 1746.86 1171.03 1753.75 1163.64C1760.64 1155.98 1764.08 1144.38 1764.08 1128.81V1031.62C1764.08 1024.99 1766.25 1019.5 1770.59 1015.16C1774.93 1010.57 1780.41 1008.28 1787.04 1008.28ZM1847.85 1181.24C1845.3 1177.67 1844.15 1173.08 1844.41 1167.46C1844.66 1161.85 1847.98 1157 1854.36 1152.92C1858.44 1150.37 1862.78 1149.35 1867.37 1149.86C1871.96 1150.12 1876.42 1152.41 1880.76 1156.75C1888.16 1164.15 1895.94 1169.89 1904.1 1173.97C1912.27 1178.05 1922.47 1180.09 1934.72 1180.09C1938.54 1179.84 1942.75 1179.33 1947.34 1178.56C1951.94 1177.54 1955.89 1175.5 1959.21 1172.44C1962.78 1169.12 1964.56 1164.15 1964.56 1157.51C1964.56 1151.9 1962.65 1147.44 1958.82 1144.12C1955 1140.8 1949.9 1138 1943.52 1135.7C1937.4 1133.41 1930.51 1131.24 1922.85 1129.2C1914.95 1126.9 1906.78 1124.35 1898.36 1121.54C1890.2 1118.74 1882.67 1115.17 1875.79 1110.83C1868.9 1106.24 1863.29 1100.24 1858.95 1092.84C1854.61 1085.45 1852.44 1076.14 1852.44 1064.91C1852.44 1052.16 1856.02 1041.31 1863.16 1032.38C1870.3 1023.46 1879.49 1016.57 1890.71 1011.72C1902.19 1006.87 1914.18 1004.45 1926.68 1004.45C1934.59 1004.45 1942.88 1005.47 1951.55 1007.51C1960.23 1009.3 1968.52 1012.36 1976.43 1016.7C1984.33 1020.78 1990.97 1026.26 1996.32 1033.15C1999.13 1036.98 2000.79 1041.57 2001.3 1046.93C2001.81 1052.28 1999.39 1057.13 1994.03 1061.47C1990.2 1064.53 1985.74 1065.93 1980.64 1065.68C1975.53 1065.17 1971.32 1063.38 1968.01 1060.32C1963.67 1054.71 1957.8 1050.24 1950.41 1046.93C1943.26 1043.61 1934.97 1041.95 1925.53 1041.95C1921.71 1041.95 1917.5 1042.46 1912.9 1043.48C1908.57 1044.25 1904.74 1046.16 1901.43 1049.22C1898.11 1052.03 1896.45 1056.62 1896.45 1063C1896.45 1068.86 1898.36 1073.58 1902.19 1077.16C1906.02 1080.47 1911.12 1083.28 1917.5 1085.57C1924.13 1087.62 1931.14 1089.66 1938.54 1091.7C1946.2 1093.74 1953.98 1096.16 1961.89 1098.97C1969.79 1101.77 1977.06 1105.47 1983.7 1110.06C1990.33 1114.66 1995.69 1120.65 1999.77 1128.05C2003.85 1135.19 2005.89 1144.38 2005.89 1155.6C2005.89 1168.61 2002.06 1179.71 1994.41 1188.89C1986.76 1198.08 1977.19 1205.09 1965.71 1209.94C1954.23 1214.53 1942.5 1216.83 1930.51 1216.83C1915.46 1216.83 1900.4 1214.28 1885.35 1209.17C1870.3 1203.82 1857.8 1194.5 1847.85 1181.24Z" fill="#3D319D"/>
</svg>
