<svg width="500" height="500" viewBox="0 0 500 500" fill="none" xmlns="http://www.w3.org/2000/svg">
<path d="M362.581 382.678C365.671 380.809 368.245 376.447 368.245 372.812V249.75C368.245 246.116 365.671 241.65 362.581 239.885L256.916 178.405C253.826 176.64 248.677 176.64 245.587 178.405L140.025 239.781C136.936 241.546 134.361 246.012 134.361 249.646V267.924C134.361 271.559 136.936 273.013 140.025 271.143L245.69 208.833C248.78 206.964 253.929 206.964 257.019 208.833L336.422 255.047C339.512 256.916 342.087 261.278 342.087 264.912V357.443C342.087 361.077 339.512 365.543 336.422 367.308L256.916 413.626C253.826 415.391 248.677 415.391 245.587 413.626L166.081 367.308C162.991 365.439 160.417 361.077 160.417 357.443V296.171C160.417 292.536 157.842 291.083 154.752 292.848L140.025 301.675C136.936 303.545 134.361 308.01 134.361 311.541V372.709C134.361 376.343 136.936 380.809 140.025 382.574L245.69 444.054C248.78 445.819 253.929 445.819 257.019 444.054L362.581 382.678Z" fill="white"/>
<path d="M256.914 123.881C253.825 122.116 248.675 122.116 245.586 123.881L166.079 170.198C162.99 172.068 160.415 170.51 160.415 166.875V4.03542C160.415 0.400671 157.84 -1.05323 154.751 0.816072L139.921 9.74717C136.831 11.6165 134.256 16.082 134.256 19.7168V211.427C134.256 215.062 136.831 216.515 139.921 214.75L245.483 154.205C248.572 152.44 253.722 152.44 256.811 154.205L383.074 227.731C386.164 229.497 388.738 233.962 388.738 237.597V384.649C388.738 388.283 386.164 392.749 383.074 394.514L256.811 468.04C253.722 469.806 248.572 469.806 245.483 468.04L119.323 394.722C116.233 392.957 113.659 388.491 113.659 384.856V31.9711C113.659 28.3363 111.084 26.8824 107.994 28.7517L93.1643 37.6828C90.0747 39.5521 87.5 44.0177 87.5 47.6524L87.5 400.018C87.5 403.653 90.0747 408.119 93.1643 409.884L245.586 498.676C248.675 500.441 253.825 500.441 256.914 498.676L409.336 409.884C412.425 408.015 415 403.653 415 400.018V222.435C415 218.8 412.425 214.335 409.336 212.569L256.914 123.881Z" fill="white"/>
</svg>
