<svg width="2757" height="1325" viewBox="0 0 2757 1325" fill="none" xmlns="http://www.w3.org/2000/svg">
<path d="M735.563 1013.68C743.825 1008.73 750.709 997.174 750.709 987.546V661.565C750.709 651.937 743.825 640.108 735.563 635.432L453.016 472.579C444.754 467.903 430.985 467.903 422.724 472.579L140.452 635.157C132.19 639.833 125.306 651.662 125.306 661.29V709.706C125.306 719.334 132.19 723.185 140.452 718.234L422.999 553.18C431.261 548.229 445.03 548.229 453.291 553.18L665.615 675.595C673.876 680.546 680.761 692.1 680.761 701.728V946.833C680.761 956.461 673.876 968.29 665.615 972.966L453.016 1095.66C444.754 1100.33 430.985 1100.33 422.724 1095.66L210.125 972.966C201.863 968.014 194.979 956.461 194.979 946.833V784.53C194.979 774.902 188.094 771.051 179.832 775.727L140.452 799.11C132.19 804.061 125.306 815.89 125.306 825.243V987.271C125.306 996.899 132.19 1008.73 140.452 1013.4L422.999 1176.26C431.261 1180.93 445.03 1180.93 453.291 1176.26L735.563 1013.68Z" fill="white"/>
<path d="M453.011 328.15C444.75 323.473 430.98 323.473 422.719 328.15L210.12 450.839C201.859 455.791 194.974 451.665 194.974 442.036V10.6895C194.974 1.06134 188.089 -2.78991 179.828 2.1617L140.172 25.8194C131.91 30.771 125.026 42.5998 125.026 52.2279V560.05C125.026 569.678 131.91 573.529 140.172 568.853L422.443 408.476C430.705 403.799 444.474 403.799 452.736 408.476L790.36 603.239C798.622 607.915 805.507 619.744 805.507 629.372V1018.9C805.507 1028.53 798.622 1040.36 790.36 1045.03L452.736 1239.79C444.474 1244.47 430.705 1244.47 422.443 1239.79L85.0945 1045.58C76.8329 1040.91 69.9483 1029.08 69.9483 1019.45V84.6884C69.9483 75.0603 63.0636 71.209 54.802 76.1607L15.1463 99.8183C6.88467 104.77 0 116.599 0 126.227L0 1059.61C0 1069.24 6.88467 1081.07 15.1463 1085.74L422.719 1320.95C430.98 1325.62 444.75 1325.62 453.011 1320.95L860.584 1085.74C868.846 1080.79 875.73 1069.24 875.73 1059.61V589.209C875.73 579.581 868.846 567.752 860.584 563.076L453.011 328.15Z" fill="white"/>
<path d="M1117.47 212.679C1141.96 212.679 1160.2 218.419 1172.19 229.898C1184.18 241.378 1190.18 258.343 1190.18 280.792C1190.18 292.782 1187.24 303.369 1181.38 312.553C1175.51 321.482 1166.84 328.497 1155.36 333.599C1143.88 338.446 1129.72 340.87 1112.88 340.87L1114.41 323.65C1122.32 323.65 1131.38 324.798 1141.58 327.094C1151.78 329.135 1161.61 332.961 1171.04 338.574C1180.74 343.931 1188.65 351.584 1194.77 361.533C1201.15 371.227 1204.34 383.728 1204.34 399.034C1204.34 415.871 1201.53 429.647 1195.92 440.361C1190.56 451.076 1183.42 459.367 1174.49 465.234C1165.56 471.102 1155.99 475.183 1145.79 477.479C1135.58 479.52 1125.76 480.541 1116.32 480.541H1021.04C1014.41 480.541 1008.8 478.372 1004.2 474.035C999.868 469.443 997.699 463.831 997.699 457.198V236.021C997.699 229.388 999.868 223.903 1004.2 219.567C1008.8 214.975 1014.41 212.679 1021.04 212.679H1117.47ZM1110.58 257.833H1042.47L1047.45 251.71V320.971L1042.85 317.527H1111.73C1119.13 317.527 1125.76 315.104 1131.63 310.257C1137.5 305.41 1140.43 298.395 1140.43 289.211C1140.43 278.241 1137.63 270.333 1132.01 265.486C1126.66 260.384 1119.51 257.833 1110.58 257.833ZM1113.65 362.681H1044L1047.45 359.62V440.361L1043.62 436.535H1116.32C1128.06 436.535 1137.37 433.473 1144.26 427.351C1151.15 420.973 1154.59 411.534 1154.59 399.034C1154.59 387.554 1152.29 379.263 1147.7 374.161C1143.11 369.059 1137.63 365.87 1131.25 364.595C1124.87 363.319 1119 362.681 1113.65 362.681ZM1338.76 484.367C1317.08 484.367 1298.2 479.903 1282.13 470.974C1266.31 461.79 1254.07 449.418 1245.39 433.856C1236.98 418.295 1232.77 400.692 1232.77 381.049C1232.77 358.089 1237.36 338.574 1246.54 322.502C1255.98 306.175 1268.23 293.675 1283.28 285.001C1298.33 276.328 1314.27 271.991 1331.11 271.991C1344.12 271.991 1356.37 274.67 1367.85 280.027C1379.58 285.384 1389.91 292.782 1398.84 302.221C1407.77 311.405 1414.78 322.119 1419.89 334.365C1425.24 346.61 1427.92 359.62 1427.92 373.396C1427.67 379.518 1425.24 384.493 1420.65 388.32C1416.06 392.146 1410.7 394.059 1404.58 394.059H1258.4L1246.92 355.793H1387.36L1378.94 363.447V353.115C1378.43 345.717 1375.75 339.084 1370.91 333.217C1366.31 327.349 1360.45 322.757 1353.3 319.441C1346.42 315.869 1339.02 314.084 1331.11 314.084C1323.46 314.084 1316.31 315.104 1309.68 317.145C1303.05 319.186 1297.31 322.63 1292.46 327.477C1287.61 332.324 1283.79 338.829 1280.98 346.992C1278.18 355.156 1276.77 365.488 1276.77 377.988C1276.77 391.763 1279.58 403.498 1285.19 413.192C1291.06 422.631 1298.46 429.902 1307.38 435.004C1316.57 439.851 1326.26 442.275 1336.47 442.275C1345.91 442.275 1353.43 441.509 1359.04 439.979C1364.66 438.448 1369.12 436.662 1372.44 434.621C1376.01 432.325 1379.2 430.412 1382 428.881C1386.6 426.586 1390.93 425.438 1395.01 425.438C1400.63 425.438 1405.22 427.351 1408.79 431.177C1412.62 435.004 1414.53 439.468 1414.53 444.571C1414.53 451.458 1410.96 457.708 1403.82 463.321C1397.18 468.933 1387.87 473.908 1375.88 478.245C1363.89 482.326 1351.52 484.367 1338.76 484.367ZM1117.47 578.679C1141.96 578.679 1160.2 584.419 1172.19 595.898C1184.18 607.378 1190.18 624.343 1190.18 646.792C1190.18 658.782 1187.24 669.369 1181.38 678.553C1175.51 687.482 1166.84 694.497 1155.36 699.599C1143.88 704.446 1129.72 706.87 1112.88 706.87L1114.41 689.65C1122.32 689.65 1131.38 690.798 1141.58 693.094C1151.78 695.135 1161.61 698.961 1171.04 704.574C1180.74 709.931 1188.65 717.584 1194.77 727.533C1201.15 737.227 1204.34 749.728 1204.34 765.034C1204.34 781.871 1201.53 795.647 1195.92 806.361C1190.56 817.076 1183.42 825.367 1174.49 831.234C1165.56 837.102 1155.99 841.183 1145.79 843.479C1135.58 845.52 1125.76 846.541 1116.32 846.541H1021.04C1014.41 846.541 1008.8 844.372 1004.2 840.035C999.868 835.443 997.699 829.831 997.699 823.198V602.021C997.699 595.388 999.868 589.903 1004.2 585.567C1008.8 580.975 1014.41 578.679 1021.04 578.679H1117.47ZM1110.58 623.833H1042.47L1047.45 617.71V686.971L1042.85 683.527H1111.73C1119.13 683.527 1125.76 681.104 1131.63 676.257C1137.5 671.41 1140.43 664.395 1140.43 655.211C1140.43 644.241 1137.63 636.333 1132.01 631.486C1126.66 626.384 1119.51 623.833 1110.58 623.833ZM1113.65 728.681H1044L1047.45 725.62V806.361L1043.62 802.535H1116.32C1128.06 802.535 1137.37 799.473 1144.26 793.351C1151.15 786.973 1154.59 777.534 1154.59 765.034C1154.59 753.554 1152.29 745.263 1147.7 740.161C1143.11 735.059 1137.63 731.87 1131.25 730.595C1124.87 729.319 1119 728.681 1113.65 728.681ZM1396.54 641.818C1403.17 641.818 1408.65 644.114 1412.99 648.705C1417.33 653.042 1419.5 658.527 1419.5 665.16V762.355C1419.5 789.397 1411.97 810.826 1396.92 826.642C1381.87 842.459 1360.18 850.367 1331.87 850.367C1303.55 850.367 1281.87 842.459 1266.81 826.642C1252.02 810.826 1244.62 789.397 1244.62 762.355V665.16C1244.62 658.527 1246.79 653.042 1251.12 648.705C1255.46 644.114 1260.95 641.818 1267.58 641.818C1274.21 641.818 1279.7 644.114 1284.03 648.705C1288.37 653.042 1290.54 658.527 1290.54 665.16V762.355C1290.54 777.917 1293.98 789.524 1300.87 797.177C1307.76 804.576 1318.09 808.275 1331.87 808.275C1345.9 808.275 1356.36 804.576 1363.24 797.177C1370.13 789.524 1373.58 777.917 1373.58 762.355V665.16C1373.58 658.527 1375.74 653.042 1380.08 648.705C1384.42 644.114 1389.9 641.818 1396.54 641.818ZM1457.35 814.78C1454.79 811.208 1453.65 806.616 1453.9 801.004C1454.16 795.392 1457.47 790.545 1463.85 786.463C1467.93 783.912 1472.27 782.891 1476.86 783.402C1481.45 783.657 1485.92 785.953 1490.25 790.29C1497.65 797.688 1505.43 803.428 1513.6 807.509C1521.76 811.591 1531.96 813.632 1544.21 813.632C1548.04 813.377 1552.25 812.866 1556.84 812.101C1561.43 811.081 1565.38 809.04 1568.7 805.979C1572.27 802.662 1574.06 797.688 1574.06 791.055C1574.06 785.443 1572.14 780.978 1568.32 777.662C1564.49 774.345 1559.39 771.539 1553.01 769.243C1546.89 766.947 1540 764.779 1532.35 762.738C1524.44 760.442 1516.28 757.891 1507.86 755.085C1499.69 752.279 1492.17 748.707 1485.28 744.37C1478.39 739.778 1472.78 733.783 1468.44 726.385C1464.11 718.987 1461.94 709.676 1461.94 698.451C1461.94 685.696 1465.51 674.854 1472.65 665.925C1479.79 656.996 1488.98 650.109 1500.2 645.262C1511.68 640.414 1523.67 637.991 1536.17 637.991C1544.08 637.991 1552.37 639.011 1561.05 641.052C1569.72 642.838 1578.01 645.899 1585.92 650.236C1593.83 654.318 1600.46 659.803 1605.82 666.69C1608.62 670.517 1610.28 675.109 1610.79 680.466C1611.3 685.823 1608.88 690.67 1603.52 695.007C1599.69 698.069 1595.23 699.472 1590.13 699.217C1585.03 698.706 1580.82 696.921 1577.5 693.859C1573.16 688.247 1567.3 683.783 1559.9 680.466C1552.76 677.15 1544.46 675.492 1535.03 675.492C1531.2 675.492 1526.99 676.002 1522.4 677.022C1518.06 677.788 1514.23 679.701 1510.92 682.762C1507.6 685.568 1505.94 690.16 1505.94 696.538C1505.94 702.405 1507.86 707.125 1511.68 710.696C1515.51 714.013 1520.61 716.819 1526.99 719.115C1533.62 721.156 1540.64 723.197 1548.04 725.237C1555.69 727.278 1563.47 729.702 1571.38 732.508C1579.29 735.314 1586.56 739.013 1593.19 743.605C1599.82 748.197 1605.18 754.192 1609.26 761.59C1613.34 768.733 1615.38 777.917 1615.38 789.142C1615.38 802.152 1611.56 813.249 1603.9 822.433C1596.25 831.617 1586.68 838.632 1575.2 843.479C1563.72 848.071 1551.99 850.367 1540 850.367C1524.95 850.367 1509.9 847.816 1494.85 842.714C1479.79 837.357 1467.29 828.045 1457.35 814.78ZM1697.05 823.198C1697.05 829.831 1694.88 835.443 1690.55 840.035C1686.21 844.372 1680.73 846.541 1674.09 846.541C1667.46 846.541 1661.97 844.372 1657.64 840.035C1653.3 835.443 1651.13 829.831 1651.13 823.198V665.16C1651.13 658.527 1653.3 653.042 1657.64 648.705C1661.97 644.114 1667.46 641.818 1674.09 641.818C1680.73 641.818 1686.21 644.114 1690.55 648.705C1694.88 653.042 1697.05 658.527 1697.05 665.16V823.198ZM1673.71 616.945C1665.04 616.945 1658.91 615.542 1655.34 612.735C1651.77 609.929 1649.98 604.955 1649.98 597.812V590.541C1649.98 583.143 1651.9 578.169 1655.72 575.617C1659.81 572.811 1665.93 571.408 1674.09 571.408C1683.02 571.408 1689.27 572.811 1692.84 575.617C1696.41 578.424 1698.2 583.398 1698.2 590.541V597.812C1698.2 605.21 1696.29 610.312 1692.46 613.118C1688.63 615.669 1682.38 616.945 1673.71 616.945ZM1853.69 637.991C1872.56 637.991 1886.85 641.945 1896.54 649.853C1906.49 657.762 1913.25 668.349 1916.82 681.614C1920.65 694.625 1922.56 709.166 1922.56 725.237V823.198C1922.56 829.831 1920.4 835.443 1916.06 840.035C1911.72 844.372 1906.24 846.541 1899.6 846.541C1892.97 846.541 1887.49 844.372 1883.15 840.035C1878.81 835.443 1876.64 829.831 1876.64 823.198V725.237C1876.64 716.819 1875.5 709.293 1873.2 702.66C1871.16 695.773 1867.33 690.288 1861.72 686.206C1856.11 682.124 1848.07 680.084 1837.61 680.084C1827.41 680.084 1818.74 682.124 1811.59 686.206C1804.7 690.288 1799.35 695.773 1795.52 702.66C1791.95 709.293 1790.16 716.819 1790.16 725.237V823.198C1790.16 829.831 1788 835.443 1783.66 840.035C1779.32 844.372 1773.84 846.541 1767.2 846.541C1760.57 846.541 1755.09 844.372 1750.75 840.035C1746.41 835.443 1744.24 829.831 1744.24 823.198V665.16C1744.24 658.527 1746.41 653.042 1750.75 648.705C1755.09 644.114 1760.57 641.818 1767.2 641.818C1773.84 641.818 1779.32 644.114 1783.66 648.705C1788 653.042 1790.16 658.527 1790.16 665.16V681.614L1784.42 680.466C1786.72 676.129 1790.04 671.537 1794.37 666.69C1798.71 661.588 1803.81 656.869 1809.68 652.532C1815.55 648.195 1822.18 644.751 1829.58 642.2C1836.98 639.394 1845.01 637.991 1853.69 637.991ZM2066.71 850.367C2045.03 850.367 2026.15 845.903 2010.08 836.974C1994.26 827.79 1982.02 815.418 1973.34 799.856C1964.93 784.295 1960.72 766.692 1960.72 747.049C1960.72 724.089 1965.31 704.574 1974.49 688.502C1983.93 672.175 1996.18 659.675 2011.23 651.001C2026.28 642.328 2042.22 637.991 2059.06 637.991C2072.07 637.991 2084.32 640.67 2095.8 646.027C2107.53 651.384 2117.86 658.782 2126.79 668.221C2135.72 677.405 2142.73 688.119 2147.84 700.365C2153.19 712.61 2155.87 725.62 2155.87 739.396C2155.62 745.518 2153.19 750.493 2148.6 754.32C2144.01 758.146 2138.65 760.059 2132.53 760.059H1986.35L1974.87 721.793H2115.31L2106.89 729.447V719.115C2106.38 711.717 2103.7 705.084 2098.86 699.217C2094.26 693.349 2088.4 688.757 2081.25 685.441C2074.37 681.869 2066.97 680.084 2059.06 680.084C2051.41 680.084 2044.26 681.104 2037.63 683.145C2031 685.186 2025.26 688.63 2020.41 693.477C2015.56 698.324 2011.74 704.829 2008.93 712.992C2006.13 721.156 2004.72 731.488 2004.72 743.988C2004.72 757.763 2007.53 769.498 2013.14 779.192C2019.01 788.631 2026.41 795.902 2035.34 801.004C2044.52 805.851 2054.21 808.275 2064.42 808.275C2073.86 808.275 2081.38 807.509 2086.99 805.979C2092.61 804.448 2097.07 802.662 2100.39 800.621C2103.96 798.325 2107.15 796.412 2109.95 794.881C2114.55 792.586 2118.88 791.438 2122.96 791.438C2128.58 791.438 2133.17 793.351 2136.74 797.177C2140.57 801.004 2142.48 805.468 2142.48 810.571C2142.48 817.458 2138.91 823.708 2131.77 829.321C2125.13 834.933 2115.82 839.908 2103.83 844.245C2091.84 848.326 2079.47 850.367 2066.71 850.367ZM2182.31 814.78C2179.76 811.208 2178.61 806.616 2178.86 801.004C2179.12 795.392 2182.43 790.545 2188.81 786.463C2192.89 783.912 2197.23 782.891 2201.82 783.402C2206.41 783.657 2210.88 785.953 2215.22 790.29C2222.61 797.688 2230.39 803.428 2238.56 807.509C2246.72 811.591 2256.92 813.632 2269.17 813.632C2273 813.377 2277.21 812.866 2281.8 812.101C2286.39 811.081 2290.34 809.04 2293.66 805.979C2297.23 802.662 2299.02 797.688 2299.02 791.055C2299.02 785.443 2297.1 780.978 2293.28 777.662C2289.45 774.345 2284.35 771.539 2277.97 769.243C2271.85 766.947 2264.96 764.779 2257.31 762.738C2249.4 760.442 2241.24 757.891 2232.82 755.085C2224.65 752.279 2217.13 748.707 2210.24 744.37C2203.35 739.778 2197.74 733.783 2193.4 726.385C2189.07 718.987 2186.9 709.676 2186.9 698.451C2186.9 685.696 2190.47 674.854 2197.61 665.925C2204.76 656.996 2213.94 650.109 2225.16 645.262C2236.64 640.414 2248.63 637.991 2261.13 637.991C2269.04 637.991 2277.33 639.011 2286.01 641.052C2294.68 642.838 2302.97 645.899 2310.88 650.236C2318.79 654.318 2325.42 659.803 2330.78 666.69C2333.58 670.517 2335.24 675.109 2335.75 680.466C2336.26 685.823 2333.84 690.67 2328.48 695.007C2324.66 698.069 2320.19 699.472 2315.09 699.217C2309.99 698.706 2305.78 696.921 2302.46 693.859C2298.12 688.247 2292.26 683.783 2284.86 680.466C2277.72 677.15 2269.43 675.492 2259.99 675.492C2256.16 675.492 2251.95 676.002 2247.36 677.022C2243.02 677.788 2239.2 679.701 2235.88 682.762C2232.56 685.568 2230.9 690.16 2230.9 696.538C2230.9 702.405 2232.82 707.125 2236.64 710.696C2240.47 714.013 2245.57 716.819 2251.95 719.115C2258.58 721.156 2265.6 723.197 2273 725.237C2280.65 727.278 2288.43 729.702 2296.34 732.508C2304.25 735.314 2311.52 739.013 2318.15 743.605C2324.78 748.197 2330.14 754.192 2334.22 761.59C2338.3 768.733 2340.34 777.917 2340.34 789.142C2340.34 802.152 2336.52 813.249 2328.87 822.433C2321.21 831.617 2311.65 838.632 2300.17 843.479C2288.69 848.071 2276.95 850.367 2264.96 850.367C2249.91 850.367 2234.86 847.816 2219.81 842.714C2204.76 837.357 2192.26 828.045 2182.31 814.78ZM2366.91 814.78C2364.36 811.208 2363.21 806.616 2363.47 801.004C2363.72 795.392 2367.04 790.545 2373.41 786.463C2377.5 783.912 2381.83 782.891 2386.43 783.402C2391.02 783.657 2395.48 785.953 2399.82 790.29C2407.22 797.688 2415 803.428 2423.16 807.509C2431.32 811.591 2441.53 813.632 2453.77 813.632C2457.6 813.377 2461.81 812.866 2466.4 812.101C2470.99 811.081 2474.95 809.04 2478.26 805.979C2481.84 802.662 2483.62 797.688 2483.62 791.055C2483.62 785.443 2481.71 780.978 2477.88 777.662C2474.05 774.345 2468.95 771.539 2462.57 769.243C2456.45 766.947 2449.56 764.779 2441.91 762.738C2434 760.442 2425.84 757.891 2417.42 755.085C2409.26 752.279 2401.73 748.707 2394.84 744.37C2387.96 739.778 2382.34 733.783 2378.01 726.385C2373.67 718.987 2371.5 709.676 2371.5 698.451C2371.5 685.696 2375.07 674.854 2382.22 665.925C2389.36 656.996 2398.54 650.109 2409.77 645.262C2421.25 640.414 2433.24 637.991 2445.74 637.991C2453.65 637.991 2461.94 639.011 2470.61 641.052C2479.28 642.838 2487.58 645.899 2495.48 650.236C2503.39 654.318 2510.02 659.803 2515.38 666.69C2518.19 670.517 2519.85 675.109 2520.36 680.466C2520.87 685.823 2518.44 690.67 2513.09 695.007C2509.26 698.069 2504.79 699.472 2499.69 699.217C2494.59 698.706 2490.38 696.921 2487.06 693.859C2482.73 688.247 2476.86 683.783 2469.46 680.466C2462.32 677.15 2454.03 675.492 2444.59 675.492C2440.76 675.492 2436.55 676.002 2431.96 677.022C2427.63 677.788 2423.8 679.701 2420.48 682.762C2417.17 685.568 2415.51 690.16 2415.51 696.538C2415.51 702.405 2417.42 707.125 2421.25 710.696C2425.07 714.013 2430.18 716.819 2436.55 719.115C2443.19 721.156 2450.2 723.197 2457.6 725.237C2465.25 727.278 2473.03 729.702 2480.94 732.508C2488.85 735.314 2496.12 739.013 2502.75 743.605C2509.39 748.197 2514.74 754.192 2518.83 761.59C2522.91 768.733 2524.95 777.917 2524.95 789.142C2524.95 802.152 2521.12 813.249 2513.47 822.433C2505.82 831.617 2496.25 838.632 2484.77 843.479C2473.29 848.071 2461.55 850.367 2449.56 850.367C2434.51 850.367 2419.46 847.816 2404.41 842.714C2389.36 837.357 2376.86 828.045 2366.91 814.78ZM1021.81 1212.54C1014.66 1212.54 1008.8 1210.37 1004.2 1206.04C999.868 1201.44 997.699 1195.83 997.699 1189.2V968.021C997.699 961.388 999.868 955.903 1004.2 951.567C1008.8 946.975 1014.41 944.679 1021.04 944.679H1145.41C1152.04 944.679 1157.52 946.847 1161.86 951.184C1166.45 955.266 1168.75 960.623 1168.75 967.256C1168.75 972.868 1166.45 977.843 1161.86 982.179C1157.52 986.516 1152.04 988.685 1145.41 988.685H1042.09L1045.53 984.093V1061.01L1042.85 1056.03H1128.19C1134.82 1056.03 1140.3 1058.2 1144.64 1062.54C1149.23 1066.62 1151.53 1071.98 1151.53 1078.61C1151.53 1084.22 1149.23 1089.2 1144.64 1093.53C1140.3 1097.87 1134.82 1100.04 1128.19 1100.04H1042.09L1045.53 1096.59V1189.2C1045.53 1195.83 1043.11 1201.44 1038.26 1206.04C1033.67 1210.37 1028.18 1212.54 1021.81 1212.54ZM1399.83 1110.37C1399.83 1131.29 1395.11 1149.78 1385.67 1165.86C1376.48 1181.67 1363.98 1194.05 1348.17 1202.97C1332.61 1211.9 1315.13 1216.37 1295.74 1216.37C1276.36 1216.37 1258.75 1211.9 1242.94 1202.97C1227.38 1194.05 1214.87 1181.67 1205.44 1165.86C1196.25 1149.78 1191.66 1131.29 1191.66 1110.37C1191.66 1089.45 1196.25 1071.08 1205.44 1055.27C1214.87 1039.2 1227.38 1026.7 1242.94 1017.77C1258.75 1008.58 1276.36 1003.99 1295.74 1003.99C1315.13 1003.99 1332.61 1008.58 1348.17 1017.77C1363.98 1026.7 1376.48 1039.2 1385.67 1055.27C1395.11 1071.08 1399.83 1089.45 1399.83 1110.37ZM1353.91 1110.37C1353.91 1097.36 1351.23 1086.14 1345.87 1076.7C1340.77 1067 1333.75 1059.48 1324.83 1054.12C1316.15 1048.76 1306.46 1046.08 1295.74 1046.08C1285.03 1046.08 1275.21 1048.76 1266.28 1054.12C1257.61 1059.48 1250.59 1067 1245.23 1076.7C1240.13 1086.14 1237.58 1097.36 1237.58 1110.37C1237.58 1123.13 1240.13 1134.35 1245.23 1144.04C1250.59 1153.48 1257.61 1160.88 1266.28 1166.24C1275.21 1171.6 1285.03 1174.27 1295.74 1174.27C1306.46 1174.27 1316.15 1171.6 1324.83 1166.24C1333.75 1160.88 1340.77 1153.48 1345.87 1144.04C1351.23 1134.35 1353.91 1123.13 1353.91 1110.37ZM1527.35 1003.99C1541.89 1003.99 1554.52 1005.52 1565.23 1008.58C1576.2 1011.64 1584.62 1015.98 1590.49 1021.59C1596.61 1026.95 1599.67 1033.46 1599.67 1041.11C1599.67 1046.21 1598.14 1051.06 1595.08 1055.65C1592.02 1059.99 1587.56 1062.16 1581.69 1062.16C1577.61 1062.16 1574.16 1061.65 1571.36 1060.62C1568.81 1059.35 1566.51 1057.82 1564.47 1056.03C1562.43 1054.25 1560 1052.59 1557.2 1051.06C1554.65 1049.53 1550.69 1048.38 1545.34 1047.61C1540.23 1046.59 1536.41 1046.08 1533.86 1046.08C1520.85 1046.08 1509.75 1048.89 1500.57 1054.5C1491.64 1060.11 1484.75 1067.77 1479.9 1077.46C1475.05 1086.9 1472.63 1097.87 1472.63 1110.37C1472.63 1122.62 1475.05 1133.59 1479.9 1143.28C1485 1152.72 1491.89 1160.24 1500.57 1165.86C1509.49 1171.47 1519.7 1174.27 1531.18 1174.27C1537.56 1174.27 1543.04 1173.89 1547.63 1173.13C1552.22 1172.36 1556.05 1171.21 1559.11 1169.68C1562.68 1167.64 1565.87 1165.47 1568.68 1163.18C1571.48 1160.88 1575.69 1159.73 1581.31 1159.73C1587.94 1159.73 1593.04 1161.9 1596.61 1166.24C1600.18 1170.32 1601.97 1175.42 1601.97 1181.55C1601.97 1187.92 1598.4 1193.79 1591.26 1199.15C1584.11 1204.25 1574.67 1208.46 1562.94 1211.78C1551.46 1214.84 1538.96 1216.37 1525.44 1216.37C1505.28 1216.37 1487.81 1211.78 1473.01 1202.59C1458.22 1193.15 1446.74 1180.4 1438.57 1164.33C1430.67 1148.25 1426.71 1130.27 1426.71 1110.37C1426.71 1089.45 1430.92 1071.08 1439.34 1055.27C1448.01 1039.2 1459.88 1026.7 1474.93 1017.77C1490.23 1008.58 1507.71 1003.99 1527.35 1003.99ZM1787.04 1007.82C1793.68 1007.82 1799.16 1010.11 1803.5 1014.71C1807.83 1019.04 1810 1024.53 1810 1031.16V1128.36C1810 1155.4 1802.48 1176.83 1787.43 1192.64C1772.37 1208.46 1750.69 1216.37 1722.37 1216.37C1694.06 1216.37 1672.37 1208.46 1657.32 1192.64C1642.52 1176.83 1635.13 1155.4 1635.13 1128.36V1031.16C1635.13 1024.53 1637.3 1019.04 1641.63 1014.71C1645.97 1010.11 1651.45 1007.82 1658.09 1007.82C1664.72 1007.82 1670.2 1010.11 1674.54 1014.71C1678.88 1019.04 1681.05 1024.53 1681.05 1031.16V1128.36C1681.05 1143.92 1684.49 1155.52 1691.38 1163.18C1698.27 1170.58 1708.6 1174.27 1722.37 1174.27C1736.4 1174.27 1746.86 1170.58 1753.75 1163.18C1760.64 1155.52 1764.08 1143.92 1764.08 1128.36V1031.16C1764.08 1024.53 1766.25 1019.04 1770.59 1014.71C1774.93 1010.11 1780.41 1007.82 1787.04 1007.82ZM1847.85 1180.78C1845.3 1177.21 1844.15 1172.62 1844.41 1167C1844.66 1161.39 1847.98 1156.54 1854.36 1152.46C1858.44 1149.91 1862.78 1148.89 1867.37 1149.4C1871.96 1149.66 1876.42 1151.95 1880.76 1156.29C1888.16 1163.69 1895.94 1169.43 1904.1 1173.51C1912.27 1177.59 1922.47 1179.63 1934.72 1179.63C1938.54 1179.38 1942.75 1178.87 1947.34 1178.1C1951.94 1177.08 1955.89 1175.04 1959.21 1171.98C1962.78 1168.66 1964.56 1163.69 1964.56 1157.05C1964.56 1151.44 1962.65 1146.98 1958.82 1143.66C1955 1140.35 1949.9 1137.54 1943.52 1135.24C1937.4 1132.95 1930.51 1130.78 1922.85 1128.74C1914.95 1126.44 1906.78 1123.89 1898.36 1121.08C1890.2 1118.28 1882.67 1114.71 1875.79 1110.37C1868.9 1105.78 1863.29 1099.78 1858.95 1092.39C1854.61 1084.99 1852.44 1075.68 1852.44 1064.45C1852.44 1051.7 1856.02 1040.85 1863.16 1031.93C1870.3 1023 1879.49 1016.11 1890.71 1011.26C1902.19 1006.41 1914.18 1003.99 1926.68 1003.99C1934.59 1003.99 1942.88 1005.01 1951.55 1007.05C1960.23 1008.84 1968.52 1011.9 1976.43 1016.24C1984.33 1020.32 1990.97 1025.8 1996.32 1032.69C1999.13 1036.52 2000.79 1041.11 2001.3 1046.47C2001.81 1051.82 1999.39 1056.67 1994.03 1061.01C1990.2 1064.07 1985.74 1065.47 1980.64 1065.22C1975.53 1064.71 1971.32 1062.92 1968.01 1059.86C1963.67 1054.25 1957.8 1049.78 1950.41 1046.47C1943.26 1043.15 1934.97 1041.49 1925.53 1041.49C1921.71 1041.49 1917.5 1042 1912.9 1043.02C1908.57 1043.79 1904.74 1045.7 1901.43 1048.76C1898.11 1051.57 1896.45 1056.16 1896.45 1062.54C1896.45 1068.41 1898.36 1073.12 1902.19 1076.7C1906.02 1080.01 1911.12 1082.82 1917.5 1085.11C1924.13 1087.16 1931.14 1089.2 1938.54 1091.24C1946.2 1093.28 1953.98 1095.7 1961.89 1098.51C1969.79 1101.31 1977.06 1105.01 1983.7 1109.61C1990.33 1114.2 1995.69 1120.19 1999.77 1127.59C2003.85 1134.73 2005.89 1143.92 2005.89 1155.14C2005.89 1168.15 2002.06 1179.25 1994.41 1188.43C1986.76 1197.62 1977.19 1204.63 1965.71 1209.48C1954.23 1214.07 1942.5 1216.37 1930.51 1216.37C1915.46 1216.37 1900.4 1213.82 1885.35 1208.71C1870.3 1203.36 1857.8 1194.05 1847.85 1180.78Z" fill="white"/>
</svg>
