<svg width="313" height="150" viewBox="0 0 313 150" fill="none" xmlns="http://www.w3.org/2000/svg">
<path d="M83.3001 114.796C84.2357 114.235 85.0154 112.927 85.0154 111.836V74.9201C85.0154 73.8298 84.2357 72.4902 83.3001 71.9606L51.3026 53.518C50.367 52.9884 48.8077 52.9884 47.8721 53.518L15.9057 71.9294C14.9701 72.459 14.1904 73.7986 14.1904 74.889V80.3719C14.1904 81.4622 14.9701 81.8984 15.9057 81.3376L47.9032 62.6459C48.8388 62.0851 50.3982 62.0851 51.3338 62.6459L75.3787 76.5089C76.3143 77.0697 77.094 78.3781 77.094 79.4685V107.226C77.094 108.316 76.3143 109.656 75.3787 110.185L51.3026 124.079C50.367 124.609 48.8077 124.609 47.8721 124.079L23.7959 110.185C22.8603 109.625 22.0807 108.316 22.0807 107.226V88.8455C22.0807 87.7552 21.301 87.319 20.3654 87.8486L15.9057 90.4966C14.9701 91.0574 14.1904 92.3969 14.1904 93.4561V111.805C14.1904 112.896 14.9701 114.235 15.9057 114.765L47.9032 133.207C48.8388 133.737 50.3982 133.737 51.3338 133.207L83.3001 114.796Z" fill="#3D319D"/>
<path d="M51.3021 37.1619C50.3665 36.6323 48.8072 36.6323 47.8716 37.1619L23.7954 51.0561C22.8598 51.6169 22.0802 51.1496 22.0802 50.0592V1.21055C22.0802 0.120194 21.3005 -0.315948 20.3649 0.244805L15.874 2.92396C14.9384 3.48471 14.1588 4.82429 14.1588 5.91464V63.4239C14.1588 64.5142 14.9384 64.9504 15.874 64.4208L47.8404 46.2586C48.776 45.729 50.3353 45.729 51.2709 46.2586L89.5058 68.3149C90.4414 68.8445 91.2211 70.1841 91.2211 71.2744V115.387C91.2211 116.477 90.4414 117.817 89.5058 118.347L51.2709 140.403C50.3353 140.932 48.776 140.932 47.8404 140.403L9.63669 118.409C8.70109 117.879 7.92142 116.54 7.92142 115.449V9.59069C7.92142 8.50034 7.14175 8.0642 6.20615 8.62495L1.71527 11.3041C0.779667 11.8649 0 13.2044 0 14.2948L0 119.998C0 121.088 0.779667 122.428 1.71527 122.957L47.8716 149.593C48.8072 150.123 50.3665 150.123 51.3021 149.593L97.4584 122.957C98.394 122.396 99.1737 121.088 99.1737 119.998V66.7261C99.1737 65.6357 98.394 64.2961 97.4584 63.7665L51.3021 37.1619Z" fill="#3D319D"/>
<path d="M126.866 24.1348C129.646 24.1348 131.717 24.7864 133.078 26.0897C134.439 27.393 135.12 29.319 135.12 31.8677C135.12 33.2289 134.787 34.4308 134.121 35.4734C133.455 36.4871 132.47 37.2836 131.167 37.8628C129.863 38.4131 128.256 38.6882 126.344 38.6882L126.518 36.7333C127.416 36.7333 128.444 36.8636 129.603 37.1243C130.761 37.356 131.876 37.7904 132.948 38.4276C134.048 39.0358 134.946 39.9046 135.641 41.0341C136.365 42.1347 136.727 43.5538 136.727 45.2916C136.727 47.203 136.409 48.767 135.772 49.9834C135.163 51.1998 134.352 52.1411 133.339 52.8072C132.325 53.4733 131.239 53.9367 130.081 54.1974C128.922 54.4291 127.807 54.5449 126.735 54.5449H115.918C115.165 54.5449 114.528 54.2987 114.007 53.8064C113.514 53.2851 113.268 52.6479 113.268 51.8949V26.7848C113.268 26.0318 113.514 25.4091 114.007 24.9168C114.528 24.3954 115.165 24.1348 115.918 24.1348H126.866ZM126.084 29.2611H118.351L118.916 28.566V36.4292L118.394 36.0382H126.214C127.054 36.0382 127.807 35.763 128.473 35.2128C129.139 34.6625 129.472 33.866 129.472 32.8234C129.472 31.578 129.154 30.6802 128.517 30.1299C127.908 29.5507 127.097 29.2611 126.084 29.2611ZM126.431 41.1645H118.525L118.916 40.8169V49.9834L118.481 49.549H126.735C128.068 49.549 129.125 49.2014 129.907 48.5063C130.689 47.7823 131.08 46.7107 131.08 45.2916C131.08 43.9883 130.819 43.047 130.298 42.4678C129.776 41.8885 129.154 41.5265 128.43 41.3817C127.706 41.2369 127.04 41.1645 126.431 41.1645ZM151.989 54.9794C149.527 54.9794 147.384 54.4725 145.559 53.4588C143.763 52.4162 142.373 51.0116 141.389 49.2449C140.433 47.4782 139.955 45.4798 139.955 43.2497C139.955 40.6431 140.476 38.4276 141.519 36.6029C142.591 34.7494 143.981 33.3302 145.689 32.3455C147.398 31.3608 149.208 30.8685 151.12 30.8685C152.597 30.8685 153.987 31.1726 155.29 31.7808C156.623 32.389 157.796 33.2289 158.809 34.3005C159.823 35.3431 160.619 36.5595 161.199 37.9497C161.807 39.3399 162.111 40.8169 162.111 42.3809C162.082 43.076 161.807 43.6407 161.286 44.0751C160.764 44.5096 160.156 44.7268 159.461 44.7268H142.866L141.562 40.3825H157.506L156.55 41.2513V40.0784C156.492 39.2385 156.188 38.4855 155.638 37.8193C155.117 37.1532 154.45 36.6319 153.64 36.2554C152.858 35.8499 152.018 35.6472 151.12 35.6472C150.251 35.6472 149.44 35.763 148.687 35.9947C147.934 36.2264 147.282 36.6174 146.732 37.1677C146.182 37.718 145.747 38.4565 145.429 39.3833C145.11 40.3101 144.951 41.483 144.951 42.9022C144.951 44.4661 145.27 45.7984 145.907 46.8989C146.573 47.9705 147.413 48.796 148.426 49.3752C149.469 49.9255 150.57 50.2006 151.728 50.2006C152.8 50.2006 153.654 50.1137 154.291 49.94C154.928 49.7662 155.435 49.5635 155.812 49.3318C156.217 49.0711 156.579 48.8539 156.898 48.6801C157.419 48.4195 157.911 48.2891 158.375 48.2891C159.012 48.2891 159.533 48.5063 159.939 48.9408C160.373 49.3752 160.59 49.882 160.59 50.4613C160.59 51.2433 160.185 51.9528 159.374 52.59C158.621 53.2271 157.564 53.7919 156.203 54.2843C154.841 54.7477 153.437 54.9794 151.989 54.9794ZM126.866 66.1348C129.646 66.1348 131.717 66.7864 133.078 68.0897C134.439 69.393 135.12 71.319 135.12 73.8677C135.12 75.2289 134.787 76.4308 134.121 77.4734C133.455 78.4871 132.47 79.2836 131.167 79.8628C129.863 80.4131 128.256 80.6882 126.344 80.6882L126.518 78.7333C127.416 78.7333 128.444 78.8636 129.603 79.1243C130.761 79.356 131.876 79.7904 132.948 80.4276C134.048 81.0358 134.946 81.9046 135.641 83.0341C136.365 84.1347 136.727 85.5538 136.727 87.2916C136.727 89.203 136.409 90.767 135.772 91.9834C135.163 93.1998 134.352 94.1411 133.339 94.8072C132.325 95.4733 131.239 95.9367 130.081 96.1974C128.922 96.4291 127.807 96.5449 126.735 96.5449H115.918C115.165 96.5449 114.528 96.2987 114.007 95.8064C113.514 95.2851 113.268 94.6479 113.268 93.8949V68.7848C113.268 68.0318 113.514 67.4091 114.007 66.9168C114.528 66.3954 115.165 66.1348 115.918 66.1348H126.866ZM126.084 71.2611H118.351L118.916 70.566V78.4292L118.394 78.0382H126.214C127.054 78.0382 127.807 77.763 128.473 77.2128C129.139 76.6625 129.472 75.866 129.472 74.8234C129.472 73.578 129.154 72.6802 128.517 72.1299C127.908 71.5507 127.097 71.2611 126.084 71.2611ZM126.431 83.1645H118.525L118.916 82.8169V91.9834L118.481 91.549H126.735C128.068 91.549 129.125 91.2014 129.907 90.5063C130.689 89.7823 131.08 88.7107 131.08 87.2916C131.08 85.9883 130.819 85.047 130.298 84.4678C129.776 83.8885 129.154 83.5265 128.43 83.3817C127.706 83.2369 127.04 83.1645 126.431 83.1645ZM158.548 73.3029C159.301 73.3029 159.923 73.5635 160.416 74.0849C160.908 74.5772 161.154 75.1999 161.154 75.9529V86.9875C161.154 90.0574 160.3 92.4902 158.591 94.2859C156.882 96.0815 154.421 96.9794 151.206 96.9794C147.991 96.9794 145.529 96.0815 143.82 94.2859C142.141 92.4902 141.301 90.0574 141.301 86.9875V75.9529C141.301 75.1999 141.547 74.5772 142.039 74.0849C142.532 73.5635 143.154 73.3029 143.907 73.3029C144.66 73.3029 145.283 73.5635 145.775 74.0849C146.268 74.5772 146.514 75.1999 146.514 75.9529V86.9875C146.514 88.7541 146.905 90.0719 147.687 90.9408C148.469 91.7807 149.642 92.2006 151.206 92.2006C152.799 92.2006 153.986 91.7807 154.768 90.9408C155.55 90.0719 155.941 88.7541 155.941 86.9875V75.9529C155.941 75.1999 156.187 74.5772 156.68 74.0849C157.172 73.5635 157.795 73.3029 158.548 73.3029ZM165.451 92.9391C165.162 92.5337 165.031 92.0124 165.06 91.3752C165.089 90.738 165.466 90.1878 166.19 89.7244C166.653 89.4347 167.146 89.3189 167.667 89.3768C168.188 89.4058 168.695 89.6664 169.187 90.1588C170.027 90.9987 170.911 91.6503 171.837 92.1137C172.764 92.5771 173.923 92.8088 175.313 92.8088C175.747 92.7799 176.225 92.7219 176.746 92.635C177.268 92.5192 177.717 92.2875 178.093 91.94C178.499 91.5635 178.701 90.9987 178.701 90.2457C178.701 89.6085 178.484 89.1017 178.05 88.7252C177.615 88.3487 177.036 88.0301 176.312 87.7694C175.617 87.5088 174.835 87.2626 173.966 87.0309C173.068 86.7702 172.142 86.4806 171.186 86.162C170.259 85.8435 169.405 85.438 168.623 84.9456C167.841 84.4243 167.204 83.7437 166.711 82.9038C166.219 82.0639 165.973 81.0068 165.973 79.7325C165.973 78.2844 166.378 77.0535 167.189 76.0398C168 75.0261 169.043 74.2442 170.317 73.6939C171.62 73.1436 172.981 72.8685 174.401 72.8685C175.298 72.8685 176.24 72.9843 177.224 73.216C178.209 73.4187 179.15 73.7663 180.048 74.2586C180.946 74.722 181.699 75.3447 182.307 76.1267C182.626 76.5611 182.814 77.0824 182.872 77.6906C182.93 78.2988 182.655 78.8491 182.047 79.3415C181.612 79.689 181.105 79.8483 180.526 79.8193C179.947 79.7614 179.469 79.5587 179.092 79.2111C178.6 78.574 177.934 78.0671 177.094 77.6906C176.283 77.3141 175.342 77.1259 174.27 77.1259C173.836 77.1259 173.358 77.1838 172.837 77.2997C172.344 77.3865 171.91 77.6038 171.533 77.9513C171.157 78.2699 170.969 78.7912 170.969 79.5152C170.969 80.1814 171.186 80.7172 171.62 81.1226C172.055 81.4991 172.634 81.8177 173.358 82.0784C174.111 82.3101 174.907 82.5418 175.747 82.7735C176.616 83.0052 177.5 83.2803 178.397 83.5989C179.295 83.9175 180.121 84.3374 180.874 84.8587C181.627 85.3801 182.235 86.0607 182.698 86.9006C183.162 87.7115 183.393 88.7541 183.393 90.0285C183.393 91.5055 182.959 92.7654 182.09 93.808C181.221 94.8506 180.135 95.6471 178.832 96.1974C177.528 96.7187 176.196 96.9794 174.835 96.9794C173.126 96.9794 171.417 96.6897 169.709 96.1105C168 95.5023 166.581 94.4452 165.451 92.9391ZM192.665 93.8949C192.665 94.6479 192.419 95.2851 191.926 95.8064C191.434 96.2987 190.811 96.5449 190.058 96.5449C189.305 96.5449 188.683 96.2987 188.19 95.8064C187.698 95.2851 187.452 94.6479 187.452 93.8949V75.9529C187.452 75.1999 187.698 74.5772 188.19 74.0849C188.683 73.5635 189.305 73.3029 190.058 73.3029C190.811 73.3029 191.434 73.5635 191.926 74.0849C192.419 74.5772 192.665 75.1999 192.665 75.9529V93.8949ZM190.015 70.4791C189.03 70.4791 188.335 70.3198 187.93 70.0012C187.524 69.6826 187.321 69.1179 187.321 68.3069V67.4815C187.321 66.6416 187.539 66.0769 187.973 65.7872C188.437 65.4687 189.132 65.3094 190.058 65.3094C191.072 65.3094 191.782 65.4687 192.187 65.7872C192.593 66.1058 192.795 66.6706 192.795 67.4815V68.3069C192.795 69.1468 192.578 69.7261 192.144 70.0447C191.709 70.3343 191 70.4791 190.015 70.4791ZM210.447 72.8685C212.591 72.8685 214.213 73.3174 215.313 74.2152C216.443 75.113 217.21 76.3149 217.616 77.821C218.05 79.298 218.267 80.9489 218.267 82.7735V93.8949C218.267 94.6479 218.021 95.2851 217.529 95.8064C217.036 96.2987 216.414 96.5449 215.661 96.5449C214.908 96.5449 214.285 96.2987 213.793 95.8064C213.3 95.2851 213.054 94.6479 213.054 93.8949V82.7735C213.054 81.8177 212.924 80.9633 212.663 80.2103C212.431 79.4284 211.997 78.8057 211.36 78.3423C210.723 77.8789 209.81 77.6472 208.623 77.6472C207.464 77.6472 206.48 77.8789 205.669 78.3423C204.887 78.8057 204.279 79.4284 203.844 80.2103C203.439 80.9633 203.236 81.8177 203.236 82.7735V93.8949C203.236 94.6479 202.99 95.2851 202.497 95.8064C202.005 96.2987 201.382 96.5449 200.629 96.5449C199.876 96.5449 199.254 96.2987 198.761 95.8064C198.269 95.2851 198.023 94.6479 198.023 93.8949V75.9529C198.023 75.1999 198.269 74.5772 198.761 74.0849C199.254 73.5635 199.876 73.3029 200.629 73.3029C201.382 73.3029 202.005 73.5635 202.497 74.0849C202.99 74.5772 203.236 75.1999 203.236 75.9529V77.821L202.584 77.6906C202.845 77.1983 203.221 76.677 203.714 76.1267C204.206 75.5474 204.785 75.0117 205.451 74.5193C206.118 74.0269 206.871 73.636 207.711 73.3463C208.55 73.0278 209.463 72.8685 210.447 72.8685ZM234.632 96.9794C232.171 96.9794 230.027 96.4725 228.203 95.4588C226.407 94.4162 225.017 93.0116 224.032 91.2449C223.076 89.4782 222.599 87.4798 222.599 85.2497C222.599 82.6431 223.12 80.4276 224.163 78.6029C225.234 76.7494 226.624 75.3302 228.333 74.3455C230.042 73.3608 231.852 72.8685 233.763 72.8685C235.241 72.8685 236.631 73.1726 237.934 73.7808C239.266 74.389 240.439 75.2289 241.453 76.3005C242.467 77.3431 243.263 78.5595 243.842 79.9497C244.45 81.3399 244.755 82.8169 244.755 84.3809C244.726 85.076 244.45 85.6407 243.929 86.0751C243.408 86.5096 242.8 86.7268 242.105 86.7268H225.509L224.206 82.3825H240.15L239.194 83.2513V82.0784C239.136 81.2385 238.832 80.4855 238.282 79.8193C237.76 79.1532 237.094 78.6319 236.283 78.2554C235.501 77.8499 234.661 77.6472 233.763 77.6472C232.895 77.6472 232.084 77.763 231.331 77.9947C230.578 78.2264 229.926 78.6174 229.376 79.1677C228.825 79.718 228.391 80.4565 228.072 81.3833C227.754 82.3101 227.595 83.483 227.595 84.9022C227.595 86.4661 227.913 87.7984 228.55 88.8989C229.216 89.9705 230.056 90.796 231.07 91.3752C232.113 91.9255 233.213 92.2006 234.372 92.2006C235.443 92.2006 236.298 92.1137 236.935 91.94C237.572 91.7662 238.079 91.5635 238.455 91.3318C238.861 91.0711 239.223 90.8539 239.541 90.6801C240.063 90.4195 240.555 90.2891 241.018 90.2891C241.656 90.2891 242.177 90.5063 242.582 90.9408C243.017 91.3752 243.234 91.882 243.234 92.4613C243.234 93.2433 242.829 93.9528 242.018 94.59C241.265 95.2271 240.208 95.7919 238.846 96.2843C237.485 96.7477 236.08 96.9794 234.632 96.9794ZM247.756 92.9391C247.466 92.5337 247.336 92.0124 247.365 91.3752C247.393 90.738 247.77 90.1878 248.494 89.7244C248.957 89.4347 249.45 89.3189 249.971 89.3768C250.492 89.4058 250.999 89.6664 251.492 90.1588C252.332 90.9987 253.215 91.6503 254.142 92.1137C255.068 92.5771 256.227 92.8088 257.617 92.8088C258.052 92.7799 258.529 92.7219 259.051 92.635C259.572 92.5192 260.021 92.2875 260.397 91.94C260.803 91.5635 261.006 90.9987 261.006 90.2457C261.006 89.6085 260.788 89.1017 260.354 88.7252C259.92 88.3487 259.34 88.0301 258.616 87.7694C257.921 87.5088 257.139 87.2626 256.27 87.0309C255.373 86.7702 254.446 86.4806 253.49 86.162C252.563 85.8435 251.709 85.438 250.927 84.9456C250.145 84.4243 249.508 83.7437 249.015 82.9038C248.523 82.0639 248.277 81.0068 248.277 79.7325C248.277 78.2844 248.682 77.0535 249.493 76.0398C250.304 75.0261 251.347 74.2442 252.621 73.6939C253.924 73.1436 255.286 72.8685 256.705 72.8685C257.603 72.8685 258.544 72.9843 259.529 73.216C260.513 73.4187 261.455 73.7663 262.352 74.2586C263.25 74.722 264.003 75.3447 264.611 76.1267C264.93 76.5611 265.118 77.0824 265.176 77.6906C265.234 78.2988 264.959 78.8491 264.351 79.3415C263.916 79.689 263.409 79.8483 262.83 79.8193C262.251 79.7614 261.773 79.5587 261.397 79.2111C260.904 78.574 260.238 78.0671 259.398 77.6906C258.587 77.3141 257.646 77.1259 256.574 77.1259C256.14 77.1259 255.662 77.1838 255.141 77.2997C254.648 77.3865 254.214 77.6038 253.838 77.9513C253.461 78.2699 253.273 78.7912 253.273 79.5152C253.273 80.1814 253.49 80.7172 253.924 81.1226C254.359 81.4991 254.938 81.8177 255.662 82.0784C256.415 82.3101 257.212 82.5418 258.052 82.7735C258.92 83.0052 259.804 83.2803 260.702 83.5989C261.599 83.9175 262.425 84.3374 263.178 84.8587C263.931 85.3801 264.539 86.0607 265.002 86.9006C265.466 87.7115 265.697 88.7541 265.697 90.0285C265.697 91.5055 265.263 92.7654 264.394 93.808C263.525 94.8506 262.439 95.6471 261.136 96.1974C259.833 96.7187 258.5 96.9794 257.139 96.9794C255.43 96.9794 253.722 96.6897 252.013 96.1105C250.304 95.5023 248.885 94.4452 247.756 92.9391ZM268.713 92.9391C268.424 92.5337 268.293 92.0124 268.322 91.3752C268.351 90.738 268.728 90.1878 269.452 89.7244C269.915 89.4347 270.408 89.3189 270.929 89.3768C271.45 89.4058 271.957 89.6664 272.449 90.1588C273.289 90.9987 274.173 91.6503 275.1 92.1137C276.026 92.5771 277.185 92.8088 278.575 92.8088C279.009 92.7799 279.487 92.7219 280.009 92.635C280.53 92.5192 280.979 92.2875 281.355 91.94C281.761 91.5635 281.964 90.9987 281.964 90.2457C281.964 89.6085 281.746 89.1017 281.312 88.7252C280.877 88.3487 280.298 88.0301 279.574 87.7694C278.879 87.5088 278.097 87.2626 277.228 87.0309C276.33 86.7702 275.404 86.4806 274.448 86.162C273.521 85.8435 272.667 85.438 271.885 84.9456C271.103 84.4243 270.466 83.7437 269.973 82.9038C269.481 82.0639 269.235 81.0068 269.235 79.7325C269.235 78.2844 269.64 77.0535 270.451 76.0398C271.262 75.0261 272.305 74.2442 273.579 73.6939C274.882 73.1436 276.244 72.8685 277.663 72.8685C278.56 72.8685 279.502 72.9843 280.486 73.216C281.471 73.4187 282.412 73.7663 283.31 74.2586C284.208 74.722 284.961 75.3447 285.569 76.1267C285.888 76.5611 286.076 77.0824 286.134 77.6906C286.192 78.2988 285.917 78.8491 285.309 79.3415C284.874 79.689 284.367 79.8483 283.788 79.8193C283.209 79.7614 282.731 79.5587 282.355 79.2111C281.862 78.574 281.196 78.0671 280.356 77.6906C279.545 77.3141 278.604 77.1259 277.532 77.1259C277.098 77.1259 276.62 77.1838 276.099 77.2997C275.606 77.3865 275.172 77.6038 274.795 77.9513C274.419 78.2699 274.231 78.7912 274.231 79.5152C274.231 80.1814 274.448 80.7172 274.882 81.1226C275.317 81.4991 275.896 81.8177 276.62 82.0784C277.373 82.3101 278.169 82.5418 279.009 82.7735C279.878 83.0052 280.762 83.2803 281.659 83.5989C282.557 83.9175 283.383 84.3374 284.136 84.8587C284.889 85.3801 285.497 86.0607 285.96 86.9006C286.424 87.7115 286.655 88.7541 286.655 90.0285C286.655 91.5055 286.221 92.7654 285.352 93.808C284.483 94.8506 283.397 95.6471 282.094 96.1974C280.791 96.7187 279.458 96.9794 278.097 96.9794C276.388 96.9794 274.68 96.6897 272.971 96.1105C271.262 95.5023 269.843 94.4452 268.713 92.9391ZM116.005 138.545C115.194 138.545 114.528 138.299 114.007 137.806C113.514 137.285 113.268 136.648 113.268 135.895V110.785C113.268 110.032 113.514 109.409 114.007 108.917C114.528 108.395 115.165 108.135 115.918 108.135H130.037C130.79 108.135 131.413 108.381 131.905 108.873C132.426 109.337 132.687 109.945 132.687 110.698C132.687 111.335 132.426 111.9 131.905 112.392C131.413 112.885 130.79 113.131 130.037 113.131H118.307L118.698 112.609V121.341L118.394 120.777H128.082C128.835 120.777 129.458 121.023 129.95 121.515C130.472 121.979 130.732 122.587 130.732 123.34C130.732 123.977 130.472 124.542 129.95 125.034C129.458 125.526 128.835 125.773 128.082 125.773H118.307L118.698 125.382V135.895C118.698 136.648 118.423 137.285 117.873 137.806C117.352 138.299 116.729 138.545 116.005 138.545ZM158.921 126.946C158.921 129.321 158.385 131.42 157.314 133.245C156.271 135.041 154.852 136.445 153.056 137.459C151.29 138.473 149.306 138.979 147.105 138.979C144.904 138.979 142.905 138.473 141.11 137.459C139.343 136.445 137.924 135.041 136.852 133.245C135.81 131.42 135.288 129.321 135.288 126.946C135.288 124.571 135.81 122.485 136.852 120.69C137.924 118.865 139.343 117.446 141.11 116.432C142.905 115.39 144.904 114.868 147.105 114.868C149.306 114.868 151.29 115.39 153.056 116.432C154.852 117.446 156.271 118.865 157.314 120.69C158.385 122.485 158.921 124.571 158.921 126.946ZM153.708 126.946C153.708 125.469 153.404 124.194 152.796 123.123C152.217 122.022 151.42 121.168 150.406 120.559C149.422 119.951 148.321 119.647 147.105 119.647C145.888 119.647 144.773 119.951 143.76 120.559C142.775 121.168 141.978 122.022 141.37 123.123C140.791 124.194 140.501 125.469 140.501 126.946C140.501 128.394 140.791 129.668 141.37 130.769C141.978 131.84 142.775 132.68 143.76 133.288C144.773 133.897 145.888 134.201 147.105 134.201C148.321 134.201 149.422 133.897 150.406 133.288C151.42 132.68 152.217 131.84 152.796 130.769C153.404 129.668 153.708 128.394 153.708 126.946ZM173.399 114.868C175.05 114.868 176.483 115.042 177.7 115.39C178.945 115.737 179.901 116.23 180.567 116.867C181.262 117.475 181.61 118.214 181.61 119.082C181.61 119.662 181.436 120.212 181.088 120.733C180.741 121.226 180.234 121.472 179.568 121.472C179.105 121.472 178.714 121.414 178.395 121.298C178.105 121.153 177.845 120.979 177.613 120.777C177.381 120.574 177.106 120.386 176.788 120.212C176.498 120.038 176.049 119.908 175.441 119.821C174.862 119.705 174.427 119.647 174.138 119.647C172.66 119.647 171.401 119.966 170.358 120.603C169.344 121.24 168.562 122.109 168.012 123.21C167.462 124.281 167.187 125.526 167.187 126.946C167.187 128.336 167.462 129.581 168.012 130.682C168.591 131.753 169.373 132.608 170.358 133.245C171.372 133.882 172.53 134.201 173.833 134.201C174.557 134.201 175.18 134.157 175.701 134.07C176.223 133.983 176.657 133.853 177.005 133.679C177.41 133.448 177.772 133.201 178.091 132.941C178.409 132.68 178.887 132.55 179.524 132.55C180.277 132.55 180.857 132.796 181.262 133.288C181.668 133.752 181.87 134.331 181.87 135.026C181.87 135.75 181.465 136.416 180.654 137.024C179.843 137.604 178.771 138.082 177.439 138.458C176.136 138.806 174.717 138.979 173.182 138.979C170.894 138.979 168.91 138.458 167.23 137.415C165.55 136.344 164.247 134.896 163.32 133.071C162.422 131.246 161.973 129.205 161.973 126.946C161.973 124.571 162.451 122.485 163.407 120.69C164.392 118.865 165.739 117.446 167.447 116.432C169.185 115.39 171.169 114.868 173.399 114.868ZM202.882 115.303C203.635 115.303 204.257 115.564 204.75 116.085C205.242 116.577 205.488 117.2 205.488 117.953V128.987C205.488 132.057 204.634 134.49 202.925 136.286C201.216 138.082 198.754 138.979 195.54 138.979C192.325 138.979 189.863 138.082 188.154 136.286C186.475 134.49 185.635 132.057 185.635 128.987V117.953C185.635 117.2 185.881 116.577 186.373 116.085C186.866 115.564 187.488 115.303 188.241 115.303C188.994 115.303 189.617 115.564 190.109 116.085C190.602 116.577 190.848 117.2 190.848 117.953V128.987C190.848 130.754 191.239 132.072 192.021 132.941C192.803 133.781 193.976 134.201 195.54 134.201C197.133 134.201 198.32 133.781 199.102 132.941C199.884 132.072 200.275 130.754 200.275 128.987V117.953C200.275 117.2 200.521 116.577 201.014 116.085C201.506 115.564 202.129 115.303 202.882 115.303ZM209.785 134.939C209.496 134.534 209.365 134.012 209.394 133.375C209.423 132.738 209.8 132.188 210.524 131.724C210.987 131.435 211.48 131.319 212.001 131.377C212.522 131.406 213.029 131.666 213.521 132.159C214.361 132.999 215.245 133.65 216.171 134.114C217.098 134.577 218.257 134.809 219.647 134.809C220.081 134.78 220.559 134.722 221.08 134.635C221.602 134.519 222.051 134.288 222.427 133.94C222.833 133.563 223.035 132.999 223.035 132.246C223.035 131.609 222.818 131.102 222.384 130.725C221.949 130.349 221.37 130.03 220.646 129.769C219.951 129.509 219.169 129.263 218.3 129.031C217.402 128.77 216.475 128.481 215.52 128.162C214.593 127.843 213.739 127.438 212.957 126.946C212.175 126.424 211.537 125.744 211.045 124.904C210.553 124.064 210.307 123.007 210.307 121.732C210.307 120.284 210.712 119.053 211.523 118.04C212.334 117.026 213.377 116.244 214.651 115.694C215.954 115.144 217.315 114.868 218.735 114.868C219.632 114.868 220.574 114.984 221.558 115.216C222.543 115.419 223.484 115.766 224.382 116.259C225.28 116.722 226.033 117.345 226.641 118.127C226.96 118.561 227.148 119.082 227.206 119.691C227.264 120.299 226.989 120.849 226.381 121.341C225.946 121.689 225.439 121.848 224.86 121.819C224.281 121.761 223.803 121.559 223.426 121.211C222.934 120.574 222.268 120.067 221.428 119.691C220.617 119.314 219.676 119.126 218.604 119.126C218.17 119.126 217.692 119.184 217.171 119.3C216.678 119.387 216.244 119.604 215.867 119.951C215.491 120.27 215.303 120.791 215.303 121.515C215.303 122.181 215.52 122.717 215.954 123.123C216.389 123.499 216.968 123.818 217.692 124.078C218.445 124.31 219.241 124.542 220.081 124.773C220.95 125.005 221.833 125.28 222.731 125.599C223.629 125.917 224.455 126.337 225.208 126.859C225.961 127.38 226.569 128.061 227.032 128.901C227.496 129.712 227.727 130.754 227.727 132.028C227.727 133.506 227.293 134.765 226.424 135.808C225.555 136.851 224.469 137.647 223.166 138.197C221.862 138.719 220.53 138.979 219.169 138.979C217.46 138.979 215.751 138.69 214.043 138.11C212.334 137.502 210.915 136.445 209.785 134.939Z" fill="#3D319D"/>
</svg>
