<svg width="414" height="271" viewBox="0 0 414 271" fill="none" xmlns="http://www.w3.org/2000/svg">
<path fill-rule="evenodd" clip-rule="evenodd" d="M209.489 256.888C209.002 257.635 208.536 258.359 208.086 259.059C203.526 266.149 200.581 270.729 194.194 270.729C187.808 270.729 184.862 266.149 180.303 259.059C178.56 256.349 176.581 253.271 174.083 249.943C173.78 250.095 173.494 250.247 173.224 250.399C171.884 251.153 171.032 251.817 169.358 253.361C165.198 257.197 163.677 258.46 159.929 260.765C152.015 265.635 142.962 266.941 133.555 265.185C125.965 263.768 118.312 260.396 110.898 255.553C105.458 252 103.929 244.709 107.482 239.27C110.166 235.162 114.981 233.284 119.52 234.141C119.121 233.859 118.726 233.57 118.335 233.276C117.811 232.882 117.283 232.484 116.75 232.083L116.748 232.081C90.9274 212.651 54.842 185.496 49.1983 152.193C47.1714 151.947 45.0566 151.926 36.977 151.933C34.5729 151.936 32.7673 151.92 30.9756 151.873C20.88 151.606 13.4436 150.068 7.53113 146.393C-1.30727 140.899 -1.09313 137.487 1.75334 125.663C3.07134 120.189 6.82576 116.355 12.3005 117.673C17.7752 118.991 18.1968 123.424 16.8789 128.899C16.5634 130.209 16.4216 131.292 16.4198 132.149C16.4186 132.717 16.4758 133.097 16.5545 133.333C16.6027 133.477 16.6467 133.53 17.0254 133.766C18.9704 134.975 23.2144 135.733 29.9057 135.91C31.476 135.951 33.1148 135.965 35.3487 135.963C46.1671 135.953 47.5545 135.982 51.5063 136.571C54.8044 137.062 57.6086 137.902 60.1079 139.399C63.8779 141.658 66.4874 145.246 67.1478 149.748C70.8024 174.662 111.356 190.68 134.774 196.607C134.89 194.635 134.949 192.635 134.949 190.612C134.949 177.584 132.493 165.526 128.321 155.688C127.638 154.078 126.935 152.366 126.233 150.585C118.817 132.493 114.979 111.671 114.979 94.902C114.979 42.4891 157.468 0 209.881 0C262.294 0 304.783 42.4891 304.783 94.902C304.783 105.215 303.333 117.087 300.491 128.912C298.905 137.656 295.095 147.879 291.783 155.688C287.611 165.526 285.155 177.584 285.155 190.612C285.155 192.61 285.213 194.586 285.326 196.535C305.413 189.998 324.688 171.436 328.3 146.815C328.96 142.313 331.57 138.724 335.34 136.465C337.839 134.968 340.643 134.128 343.941 133.637C347.893 133.048 349.281 133.02 360.099 133.03C362.333 133.032 363.972 133.018 365.542 132.976C372.233 132.799 376.477 132.041 378.422 130.832C378.801 130.597 378.845 130.544 378.893 130.399C378.972 130.163 379.029 129.783 379.028 129.215C379.026 128.359 378.884 127.276 378.569 125.965C377.251 120.49 377.672 116.057 383.147 114.739C388.622 113.421 392.376 117.255 393.694 122.73C396.541 134.553 396.755 137.966 387.917 143.46C382.004 147.135 374.568 148.672 364.472 148.939C362.68 148.987 360.875 149.002 358.471 149C350.391 148.992 348.276 149.013 346.249 149.26C340.489 183.25 327.33 213.974 301.427 233.479C301.354 233.535 301.28 233.589 301.207 233.644C301.059 233.754 300.91 233.863 300.761 233.972C304.902 233.656 309.084 235.547 311.516 239.27C315.069 244.709 313.54 252 308.1 255.553C300.686 260.396 293.033 263.768 285.443 265.185C276.036 266.941 266.982 265.635 259.068 260.765C255.321 258.46 253.8 257.197 249.64 253.361C247.965 251.817 247.114 251.153 245.773 250.399C245.499 250.245 245.209 250.09 244.9 249.935C242.399 253.267 240.419 256.347 238.674 259.059C234.115 266.149 231.169 270.729 224.783 270.729C218.396 270.729 215.451 266.149 210.891 259.059C210.441 258.359 209.975 257.635 209.489 256.888Z" fill="#FF2B44"/>
<path fill-rule="evenodd" clip-rule="evenodd" d="M179.568 15.5242C177.267 17.932 176.154 21.95 177.561 25.092C179.05 28.4151 182.634 29.7438 185.874 30.6724C192.067 32.4481 198.717 33.9077 204.76 31.5783C207.041 30.6983 209.21 29.2363 210.599 27.0457C220.376 11.6261 186.703 8.05435 179.568 15.5242Z" fill="#DE2C41"/>
<path fill-rule="evenodd" clip-rule="evenodd" d="M231.524 31.6213C241.417 32.5303 242.553 18.4135 233.05 17.299C229.509 16.8833 224.588 19.4511 222.987 23.1225C220.364 29.1382 227.639 31.2645 231.524 31.6213Z" fill="#DE2C41"/>
<path fill-rule="evenodd" clip-rule="evenodd" d="M152.721 34.259C153.044 35.8009 154.563 36.6049 155.938 37.0292C157.432 37.4903 158.993 37.7633 160.536 37.586C162.445 37.3664 165.699 36.0049 165.66 33.3805C165.538 25.2801 151.334 27.6433 152.721 34.259Z" fill="#DE2C41"/>
<path fill-rule="evenodd" clip-rule="evenodd" d="M174.971 49.5528C176.692 50.9041 178.889 51.2077 180.985 51.472C182.878 51.7112 184.837 51.9449 186.654 51.3128C188.472 50.6798 190.12 48.9339 190.143 46.821C190.196 41.8202 183.879 38.8053 180.009 39.261C175.729 39.7645 169.938 45.6022 174.971 49.5528Z" fill="#DE2C41"/>
<path fill-rule="evenodd" clip-rule="evenodd" d="M204.074 52.3377C207.255 52.0334 219.243 48.6671 216.301 42.435C214.563 38.7534 207.528 38.9895 204.465 39.5087C201.203 40.0608 198.656 41.8271 198.176 45.7706C197.672 49.9016 200.422 52.6867 204.074 52.3377Z" fill="#DE2C41"/>
<path fill-rule="evenodd" clip-rule="evenodd" d="M264.981 33.7238C266.05 33.0548 266.788 31.7748 266.889 30.4187C267.194 26.2822 260.247 25.4908 258.46 28.4195C255.6 33.105 261.779 35.7301 264.981 33.7238Z" fill="#DE2C41"/>
<path fill-rule="evenodd" clip-rule="evenodd" d="M224.348 47.3929C224.581 47.5937 224.833 47.7757 225.102 47.9349C226.697 48.8784 228.846 49.5459 230.631 48.9553C232.738 48.258 235.504 45.1835 234.576 42.5365C233.617 39.8047 227.402 38.6761 225.203 39.4588C221.494 40.778 221.813 45.2047 224.348 47.3929Z" fill="#DE2C41"/>
<path fill-rule="evenodd" clip-rule="evenodd" d="M248.079 38.8591C248.212 38.8198 248.343 38.7736 248.471 38.7202C250.545 37.8575 251.075 35.6245 249.919 33.6081C248.086 30.4081 240.431 30.3477 241.326 35.372C241.493 36.3163 242.099 37.11 242.822 37.6426C244.266 38.7045 246.348 39.3696 248.079 38.8591Z" fill="#DE2C41"/>
<path fill-rule="evenodd" clip-rule="evenodd" d="M215.203 64.6007C220.581 65.2799 221.389 58.2242 216.556 56.7466C214.229 56.0352 209.708 56.5717 209.154 59.8658C208.546 63.4728 212.909 64.3113 215.203 64.6007Z" fill="#DE2C41"/>
<path fill-rule="evenodd" clip-rule="evenodd" d="M195.103 251.074C197.194 249.924 200.442 248.447 202.812 249.625C210.238 253.314 198.023 264.248 192.662 260.348C189.019 257.698 192.15 252.699 195.103 251.074Z" fill="#DE2C41"/>
<path fill-rule="evenodd" clip-rule="evenodd" d="M126.947 232.888C127.085 233.704 127.267 234.538 127.729 235.224C128.784 236.789 130.998 237.134 132.838 236.713C136.541 235.867 137.902 230.326 135.524 227.455C133.16 224.601 127.752 225.323 126.888 229.104C126.606 230.342 126.735 231.636 126.947 232.888Z" fill="#DE2C41"/>
<path fill-rule="evenodd" clip-rule="evenodd" d="M125.297 199.467C125.454 200.241 125.632 201.024 126.016 201.715C126.399 202.406 127.018 203.003 127.786 203.186C130.565 203.848 131.913 200.249 130.168 198.412C128.554 196.713 124.623 196.147 125.297 199.467Z" fill="#DE2C41"/>
<path fill-rule="evenodd" clip-rule="evenodd" d="M113.198 222.7C113.525 223.577 114.061 224.417 114.87 224.891C115.679 225.364 116.795 225.384 117.498 224.765C118.874 223.554 118.129 219.548 116.674 218.503C115.779 217.86 114.369 218.211 113.639 218.944C112.658 219.926 112.747 221.491 113.198 222.7Z" fill="#DE2C41"/>
<path fill-rule="evenodd" clip-rule="evenodd" d="M115.413 204.177C115.607 204.907 115.87 205.618 116.197 206.299C116.523 206.977 116.979 207.679 117.701 207.892C118.435 208.109 119.259 207.717 119.691 207.086C120.123 206.455 120.211 205.638 120.094 204.882C119.851 203.303 118.968 200.568 117.023 200.474C114.942 200.374 115.031 202.753 115.413 204.177Z" fill="#DE2C41"/>
<path fill-rule="evenodd" clip-rule="evenodd" d="M109.361 211.447C110.052 213.693 111.694 215.849 114.003 216.281C114.75 216.42 115.597 216.343 116.15 215.821C116.957 215.059 116.803 213.748 116.493 212.683C115.815 210.356 114.289 207.285 111.818 206.396C108.749 205.292 108.799 209.624 109.361 211.447Z" fill="#DE2C41"/>
<path fill-rule="evenodd" clip-rule="evenodd" d="M105.666 196.434C105.737 196.918 105.934 197.376 106.188 197.793C106.921 198.992 108.227 199.887 109.631 199.897C111.036 199.906 112.447 198.892 112.676 197.506C112.959 195.8 111.491 192.838 109.728 192.303C107.482 191.619 105.364 194.383 105.666 196.434Z" fill="#DE2C41"/>
<path fill-rule="evenodd" clip-rule="evenodd" d="M88.313 177.387C87.6565 177.578 87.206 177.98 87.1193 178.632C86.9329 180.037 87.5725 181.725 88.378 182.838C89.1418 183.893 90.2095 184.723 91.4516 185.123C92.4576 185.447 93.6666 185.471 94.4619 184.776C99.4355 180.43 91.479 176.463 88.313 177.387Z" fill="#DE2C41"/>
<path fill-rule="evenodd" clip-rule="evenodd" d="M272.699 256.086C271.841 255.087 271.481 253.562 272.146 252.424C272.45 251.904 272.932 251.51 273.437 251.181C276.884 248.926 281.883 249.446 284.792 252.36C287.178 254.75 286.363 259.297 282.645 259.588C279.867 259.806 274.489 258.17 272.699 256.086Z" fill="#DE2C41"/>
<path fill-rule="evenodd" clip-rule="evenodd" d="M302.905 244.912C303.915 244.918 304.946 245.252 305.673 245.955C306.254 246.518 306.609 247.283 306.79 248.071C307.722 252.113 303.538 256.887 299.562 254.039C295.657 251.243 298.364 244.883 302.905 244.912Z" fill="#DE2C41"/>
<path fill-rule="evenodd" clip-rule="evenodd" d="M131.686 246.759C136.502 249.593 130.473 255.178 126.302 252.727C120.96 249.585 127.874 244.516 131.686 246.759Z" fill="#DE2C41"/>
<path fill-rule="evenodd" clip-rule="evenodd" d="M147.918 249.625C149.633 249.33 151.587 249.96 152.47 251.46C155.433 256.491 148.744 262.406 143.878 260.953C136.953 258.886 143.328 250.416 147.918 249.625Z" fill="#DE2C41"/>
<path fill-rule="evenodd" clip-rule="evenodd" d="M292.362 204.186C293.827 203.799 295.437 203.828 296.808 204.473C298.18 205.118 299.27 206.431 299.45 207.935C299.953 212.137 294.292 214.571 291.009 212.679C287.393 210.596 288.522 205.198 292.362 204.186Z" fill="#DE2C41"/>
<path fill-rule="evenodd" clip-rule="evenodd" d="M304.27 193.878C304.593 193.326 305.082 192.89 305.608 192.528C307.232 191.412 309.298 190.958 311.241 191.291C313.183 191.623 314.979 192.738 316.14 194.331C319.398 198.8 315.745 204.018 310.616 204.248C306.164 204.447 301.955 197.818 304.27 193.878Z" fill="#DE2C41"/>
<path fill-rule="evenodd" clip-rule="evenodd" d="M296.143 226.339C298.754 231.232 290.313 234.149 287.633 230.066C284.662 225.541 293.833 222.008 296.143 226.339Z" fill="#DE2C41"/>
<path fill-rule="evenodd" clip-rule="evenodd" d="M276.528 217.853C277.314 217.357 278.204 216.993 279.133 216.953C279.84 216.922 280.542 217.102 281.163 217.437C282.071 217.928 282.803 218.751 283.116 219.737C285.803 228.196 270.258 221.807 276.528 217.853Z" fill="#DE2C41"/>
<path fill-rule="evenodd" clip-rule="evenodd" d="M263.963 226.785C265.636 227.079 267.42 227.428 268.627 228.625C273.273 233.232 267.999 241.983 261.843 238.62C256.627 235.77 256.57 225.484 263.963 226.785Z" fill="#DE2C41"/>
<path fill-rule="evenodd" clip-rule="evenodd" d="M225.242 265.81C226.428 265.927 227.676 265.96 228.753 265.452C229.831 264.944 230.665 263.737 230.377 262.582C229.601 259.473 223.023 259.524 220.775 260.658C216.252 262.938 223.041 265.595 225.242 265.81Z" fill="#DE2C41"/>
<path fill-rule="evenodd" clip-rule="evenodd" d="M221.142 161.081C219.601 165.892 215.092 169.375 209.769 169.375C204.446 169.375 199.937 165.892 198.396 161.081C198.926 166.896 203.816 171.451 209.769 171.451C215.722 171.451 220.612 166.896 221.142 161.081Z" fill="#D72230"/>
<path d="M251.449 152.157C262.712 152.157 271.841 144.783 271.841 135.686C271.841 126.59 262.712 119.216 251.449 119.216C240.187 119.216 231.057 126.59 231.057 135.686C231.057 144.783 240.187 152.157 251.449 152.157Z" fill="white"/>
<path d="M251.449 146.667C257.514 146.667 262.43 141.751 262.43 135.686C262.43 129.622 257.514 124.706 251.449 124.706C245.385 124.706 240.469 129.622 240.469 135.686C240.469 141.751 245.385 146.667 251.449 146.667Z" fill="#4A90E2"/>
<mask id="mask0" mask-type="alpha" maskUnits="userSpaceOnUse" x="240" y="124" width="23" height="23">
<path d="M251.449 146.667C257.514 146.667 262.43 141.751 262.43 135.686C262.43 129.622 257.514 124.706 251.449 124.706C245.385 124.706 240.469 129.622 240.469 135.686C240.469 141.751 245.385 146.667 251.449 146.667Z" fill="white"/>
</mask>
<g mask="url(#mask0)">
<path d="M252.626 145.098C256.308 145.098 259.293 142.113 259.293 138.431C259.293 134.749 256.308 131.765 252.626 131.765C248.944 131.765 245.959 134.749 245.959 138.431C245.959 142.113 248.944 145.098 252.626 145.098Z" fill="#222222"/>
<path d="M251.449 135.686C252.749 135.686 253.802 134.633 253.802 133.333C253.802 132.034 252.749 130.98 251.449 130.98C250.15 130.98 249.096 132.034 249.096 133.333C249.096 134.633 250.15 135.686 251.449 135.686Z" fill="white"/>
</g>
<path d="M169.73 152.223C185.541 152.223 195.784 143.547 197.511 132.941C198.843 125.747 184.654 118.738 169.297 118.738C153.939 118.738 142.906 120.075 140.657 129.182C138.409 138.288 153.92 152.223 169.73 152.223Z" fill="#FF4258"/>
<path fill-rule="evenodd" clip-rule="evenodd" d="M197.292 134.078C194.124 142.196 182.19 148.235 168.664 148.235C158.735 148.235 149.725 144.98 144.396 140.038C149.756 146.707 159.347 152.223 169.73 152.223C184.972 152.223 195.04 144.16 197.292 134.078Z" fill="#D72230"/>
<path d="M169.73 152.223C185.541 152.223 195.784 143.547 197.511 132.941C198.843 125.747 184.654 118.738 169.297 118.738C153.939 118.738 142.906 120.075 140.657 129.182C138.409 138.288 153.92 152.223 169.73 152.223Z" fill="#FF2B44"/>
<path fill-rule="evenodd" clip-rule="evenodd" d="M197.292 134.078C194.124 142.196 182.19 148.235 168.664 148.235C158.735 148.235 149.725 144.98 144.396 140.038C149.756 146.707 159.347 152.223 169.73 152.223C184.972 152.223 195.04 144.16 197.292 134.078Z" fill="#D72230"/>
<path d="M250.736 152.223C234.925 152.223 224.682 143.547 222.955 132.941C221.623 125.747 235.812 118.738 251.169 118.738C266.526 118.738 277.56 120.075 279.808 129.182C282.057 138.288 266.546 152.223 250.736 152.223Z" fill="#FF2B44"/>
<path fill-rule="evenodd" clip-rule="evenodd" d="M223.174 134.078C226.342 142.196 238.276 148.235 251.802 148.235C261.731 148.235 270.741 144.98 276.07 140.038C270.709 146.707 261.119 152.223 250.736 152.223C235.494 152.223 225.426 144.16 223.174 134.078Z" fill="#D72230"/>
<path d="M137.645 122.991C137.938 123.97 156.361 114.614 163.641 112.621C175.178 109.461 183.842 112.355 186.317 112.621C192.972 113.338 189.571 106.719 185.725 105.859C184.421 105.567 174.993 102.51 162.292 108.116C155.31 111.197 137.351 122.012 137.645 122.991Z" fill="black" fill-opacity="0.2"/>
<path d="M282.037 122.991C281.744 123.97 263.32 114.614 256.041 112.621C244.504 109.461 235.84 112.355 233.365 112.621C226.71 113.338 230.111 106.719 233.957 105.859C235.261 105.567 244.689 102.51 257.39 108.116C264.372 111.197 282.33 122.012 282.037 122.991Z" fill="black" fill-opacity="0.2"/>
<path d="M314.549 100.568C313.981 97.343 316.134 94.2677 319.359 93.699L365.772 85.5152C368.997 84.9465 372.072 87.0999 372.641 90.3249L391.531 197.456C392.1 200.681 389.946 203.757 386.721 204.325L340.308 212.509C337.083 213.078 334.008 210.924 333.439 207.7L314.549 100.568Z" fill="black"/>
<path d="M316.139 113.628C316.071 113.246 316.326 112.882 316.708 112.815C317.09 112.747 317.455 113.002 317.522 113.384L318.505 118.957C318.572 119.339 318.317 119.703 317.935 119.771C317.553 119.838 317.189 119.583 317.121 119.201L316.139 113.628Z" fill="black"/>
<path d="M317.611 121.975C317.543 121.593 317.798 121.229 318.18 121.162C318.562 121.094 318.926 121.349 318.994 121.731L319.977 127.304C320.044 127.686 319.789 128.051 319.407 128.118C319.025 128.185 318.661 127.93 318.593 127.548L317.611 121.975Z" fill="black"/>
<rect x="373.863" y="101.302" width="1.40447" height="7.06341" rx="0.702234" transform="rotate(-10 373.863 101.302)" fill="black"/>
<path d="M320.28 107.592C319.996 105.98 321.072 104.442 322.685 104.158L366.223 96.481C367.836 96.1966 369.373 97.2733 369.658 98.8858L384.254 181.667C384.539 183.28 383.462 184.817 381.849 185.102L338.311 192.779C336.699 193.063 335.161 191.986 334.877 190.374L320.28 107.592Z" fill="#EFEFEF"/>
<mask id="mask1" mask-type="alpha" maskUnits="userSpaceOnUse" x="319" y="95" width="66" height="99">
<path d="M320.28 107.592C319.996 105.98 321.072 104.442 322.685 104.158L366.223 96.481C367.836 96.1966 369.373 97.2733 369.658 98.8858L384.254 181.667C384.539 183.28 383.462 184.817 381.849 185.102L338.311 192.779C336.699 193.063 335.161 191.986 334.877 190.374L320.28 107.592Z" fill="white"/>
</mask>
<g mask="url(#mask1)">
<g filter="url(#filter0_d)">
<path d="M323.733 108.856C323.583 108.003 324.152 107.189 325.005 107.039L365.17 99.9566C366.023 99.8062 366.837 100.376 366.987 101.229L377.883 163.021C378.033 163.874 377.464 164.688 376.611 164.838L336.446 171.92C335.593 172.071 334.779 171.501 334.629 170.648L323.733 108.856Z" fill="white"/>
</g>
<rect x="327.682" y="111.345" width="18.0392" height="1.56863" rx="0.784314" transform="rotate(-10 327.682 111.345)" fill="#DBDBDB"/>
<rect x="337.216" y="165.413" width="15.6863" height="1.56863" rx="0.784314" transform="rotate(-10 337.216 165.413)" fill="#DBDBDB"/>
<rect x="354.209" y="162.417" width="6.66667" height="1.56863" rx="0.784314" transform="rotate(-10 354.209 162.417)" fill="#DBDBDB"/>
<rect x="329.862" y="123.704" width="8.62745" height="1.56863" rx="0.784314" transform="rotate(-10 329.862 123.704)" fill="#B2B2B2"/>
<rect x="329.862" y="123.704" width="14.902" height="1.56863" rx="0.784314" transform="rotate(-10 329.862 123.704)" fill="#B2B2B2"/>
<rect x="346.082" y="120.844" width="3.92157" height="1.56863" rx="0.784314" transform="rotate(-10 346.082 120.844)" fill="#B2B2B2"/>
<rect x="362.302" y="117.983" width="3.92157" height="1.56863" rx="0.784314" transform="rotate(-10 362.302 117.983)" fill="#DBDBDB"/>
<rect x="330.679" y="128.338" width="3.92157" height="1.56863" rx="0.784314" transform="rotate(-10 330.679 128.338)" fill="#B2B2B2"/>
<rect x="336.085" y="127.385" width="12.549" height="1.56863" rx="0.784314" transform="rotate(-10 336.085 127.385)" fill="#B2B2B2"/>
<rect x="363.119" y="122.618" width="3.92157" height="1.56863" rx="0.784314" transform="rotate(-10 363.119 122.618)" fill="#DBDBDB"/>
<rect x="331.36" y="132.2" width="8.62745" height="1.56863" rx="0.784314" transform="rotate(-10 331.36 132.2)" fill="#B2B2B2"/>
<rect x="363.8" y="126.48" width="3.92157" height="1.56863" rx="0.784314" transform="rotate(-10 363.8 126.48)" fill="#DBDBDB"/>
<rect x="332.177" y="136.834" width="16.4706" height="1.56863" rx="0.784314" transform="rotate(-10 332.177 136.834)" fill="#B2B2B2"/>
<rect x="364.618" y="131.114" width="3.92157" height="1.56863" rx="0.784314" transform="rotate(-10 364.618 131.114)" fill="#DBDBDB"/>
<rect x="332.994" y="141.469" width="13.3333" height="1.56863" rx="0.784314" transform="rotate(-10 332.994 141.469)" fill="#B2B2B2"/>
<rect x="365.435" y="135.749" width="3.92157" height="1.56863" rx="0.784314" transform="rotate(-10 365.435 135.749)" fill="#DBDBDB"/>
<rect x="333.811" y="146.103" width="8.62745" height="1.56863" rx="0.784314" transform="rotate(-10 333.811 146.103)" fill="#B2B2B2"/>
<rect x="343.852" y="144.333" width="11.7647" height="1.56863" rx="0.784314" transform="rotate(-10 343.852 144.333)" fill="#B2B2B2"/>
<path d="M334.833 151.896C334.795 151.683 334.938 151.479 335.151 151.442L370.681 145.177C370.894 145.139 371.098 145.282 371.135 145.495C371.173 145.708 371.031 145.912 370.817 145.949L335.287 152.214C335.074 152.252 334.87 152.109 334.833 151.896Z" fill="#EAEAEA"/>
<rect x="366.252" y="140.383" width="3.92157" height="1.56863" rx="0.784314" transform="rotate(-10 366.252 140.383)" fill="#DBDBDB"/>
<rect x="367.886" y="149.652" width="3.92157" height="1.56863" rx="0.784314" transform="rotate(-10 367.886 149.652)" fill="#DBDBDB"/>
<rect x="359.39" y="151.15" width="5.4902" height="1.56863" rx="0.784314" transform="rotate(-10 359.39 151.15)" fill="#B2B2B2"/>
<rect x="328.227" y="114.435" width="10.9804" height="1.56863" rx="0.784314" transform="rotate(-10 328.227 114.435)" fill="#DBDBDB"/>
<rect x="356.261" y="106.306" width="7.84314" height="1.56863" rx="0.784314" transform="rotate(-10 356.261 106.306)" fill="#B3B3B3"/>
<g filter="url(#filter1_d)">
<path d="M335.854 177.599C335.704 176.746 336.274 175.933 337.127 175.782L377.292 168.7C378.145 168.55 378.958 169.119 379.109 169.972L390.004 231.764C390.155 232.617 389.585 233.431 388.732 233.582L348.567 240.664C347.714 240.814 346.9 240.244 346.75 239.391L335.854 177.599Z" fill="white"/>
</g>
<rect x="339.804" y="180.089" width="18.0392" height="1.56863" rx="0.784314" transform="rotate(-10 339.804 180.089)" fill="#DBDBDB"/>
<rect x="341.983" y="192.447" width="8.62745" height="1.56863" rx="0.784314" transform="rotate(-10 341.983 192.447)" fill="#B2B2B2"/>
<rect x="341.983" y="192.447" width="14.902" height="1.56863" rx="0.784314" transform="rotate(-10 341.983 192.447)" fill="#B2B2B2"/>
<rect x="358.203" y="189.587" width="3.92157" height="1.56863" rx="0.784314" transform="rotate(-10 358.203 189.587)" fill="#B2B2B2"/>
<rect x="374.424" y="186.727" width="3.92157" height="1.56863" rx="0.784314" transform="rotate(-10 374.424 186.727)" fill="#DBDBDB"/>
<rect x="375.241" y="191.361" width="3.92157" height="1.56863" rx="0.784314" transform="rotate(-10 375.241 191.361)" fill="#DBDBDB"/>
<rect x="340.349" y="183.178" width="10.9804" height="1.56863" rx="0.784314" transform="rotate(-10 340.349 183.178)" fill="#DBDBDB"/>
<rect x="368.383" y="175.049" width="7.84314" height="1.56863" rx="0.784314" transform="rotate(-10 368.383 175.049)" fill="#B3B3B3"/>
</g>
<path d="M362.828 204.522C365.769 204.003 367.73 201.185 367.208 198.227C366.687 195.269 363.88 193.291 360.939 193.809C357.998 194.328 356.037 197.146 356.558 200.105C357.08 203.063 359.887 205.04 362.828 204.522Z" fill="#1E1E1E" stroke="#272727" stroke-width="1.30719"/>
<rect x="338.185" y="95.9023" width="14.7469" height="1.48332" rx="0.741658" transform="rotate(-10 338.185 95.9023)" fill="#343434"/>
<rect x="334.312" y="96.5851" width="1.47469" height="1.48332" rx="0.737346" transform="rotate(-10 334.312 96.5851)" fill="#343434"/>
<path d="M382.74 147.667C385.823 146.23 387.279 145.314 390.177 142.623C397.971 135.391 398.657 131.417 393.285 119.987C390.753 114.598 385.857 112.85 380.631 114.913C375.405 116.975 373.231 121.634 376.559 125.975C377.372 127.037 379.303 128.611 379.424 129.456C379.504 130.017 379.737 130.475 379.692 130.719C379.664 130.868 380.353 134.594 380.908 137.488C381.463 140.382 381.692 141.959 382.74 147.667Z" fill="#FF2B44"/>
<path d="M379.111 128.657C380.6 128.395 381.565 126.802 381.265 125.101C380.965 123.4 379.514 122.233 378.024 122.496C376.535 122.759 375.57 124.351 375.87 126.052C376.17 127.754 377.621 128.92 379.111 128.657Z" fill="#DE2C41"/>
<path d="M382.154 136.881C383.643 136.619 384.608 135.026 384.308 133.325C384.008 131.624 382.557 130.457 381.067 130.72C379.577 130.983 378.613 132.575 378.913 134.276C379.213 135.978 380.664 137.144 382.154 136.881Z" fill="#DE2C41"/>
<path d="M325.291 184.417C325.922 187.992 330.206 192.963 329.953 190.407C329.701 187.852 331.313 187.041 330.683 183.466C330.052 179.891 328.401 178.481 327.493 176.98C326.584 175.478 324.661 180.842 325.291 184.417Z" fill="#FF2B44"/>
<path fill-rule="evenodd" clip-rule="evenodd" d="M322.497 182.92C322.285 184.388 322.149 186.17 322.591 186.679C322.899 187.033 323.339 187.237 323.776 187.391C325.06 187.847 326.574 187.936 327.664 187.146C328.434 186.589 328.889 185.646 328.969 184.679C329.142 182.604 327.637 179.821 325.361 179.743C322.679 179.651 322.709 181.453 322.497 182.92Z" fill="#DE2C41"/>
<path d="M9.51115 87.853C9.16885 84.5962 11.5315 81.6786 14.7883 81.3363L108.46 71.491C111.717 71.1487 114.634 73.5113 114.977 76.7681L128.807 208.357C129.15 211.614 126.787 214.531 123.53 214.874L29.8584 224.719C26.6016 225.061 23.684 222.699 23.3417 219.442L9.51115 87.853Z" fill="black"/>
<path d="M10.186 100.992C10.1454 100.606 10.4252 100.261 10.8109 100.22C11.1966 100.18 11.5422 100.46 11.5827 100.845L12.1742 106.473C12.2148 106.859 11.935 107.205 11.5493 107.245C11.1636 107.286 10.818 107.006 10.7775 106.62L10.186 100.992Z" fill="black"/>
<path d="M11.0719 109.422C11.0314 109.036 11.3112 108.691 11.6969 108.65C12.0826 108.609 12.4282 108.889 12.4687 109.275L13.0602 114.903C13.1008 115.289 12.821 115.634 12.4353 115.675C12.0495 115.715 11.704 115.435 11.6635 115.05L11.0719 109.422Z" fill="black"/>
<rect x="115.43" y="87.8039" width="1.40447" height="7.06341" rx="0.702234" transform="rotate(-6 115.43 87.8039)" fill="black"/>
<path d="M14.7381 95.2602C14.567 93.6318 15.7483 92.173 17.3767 92.0018L108.146 82.4616C109.774 82.2905 111.233 83.4718 111.404 85.1002L122.65 192.099C122.821 193.727 121.64 195.186 120.011 195.357L29.2425 204.897C27.6141 205.068 26.1553 203.887 25.9841 202.259L14.7381 95.2602Z" fill="#EFEFEF"/>
<g filter="url(#filter2_d)">
<rect x="18.4883" y="96.0234" width="89.4118" height="86.2745" rx="1.56863" transform="rotate(-6 18.4883 96.0234)" fill="white"/>
</g>
<path d="M33.8153 146.462C33.7248 145.601 34.3498 144.829 35.2114 144.738L39.8915 144.246C40.7531 144.156 41.5249 144.781 41.6155 145.642L44.5669 173.723L36.7667 174.543L33.8153 146.462Z" fill="#D8D8D8"/>
<path d="M44.6559 129.55C44.5654 128.689 45.1904 127.917 46.052 127.826L50.7321 127.334C51.5937 127.244 52.3655 127.869 52.4561 128.73L57.0471 172.411L49.247 173.231L44.6559 129.55Z" fill="#B3B3B3"/>
<path d="M56.3163 120.438C56.2258 119.577 56.8508 118.805 57.7124 118.714L62.3925 118.222C63.2541 118.132 64.0259 118.757 64.1165 119.618L69.5274 171.1L61.7272 171.919L56.3163 120.438Z" fill="#D8D8D8"/>
<path d="M72.0758 150.327C71.9853 149.466 72.6103 148.694 73.4719 148.603L78.152 148.111C79.0136 148.021 79.7854 148.646 79.876 149.507L82.0076 169.788L74.2074 170.608L72.0758 150.327Z" fill="#D8D8D8"/>
<path d="M83.7365 141.215C83.6459 140.354 84.271 139.582 85.1325 139.491L89.8126 138.999C90.6742 138.909 91.4461 139.534 91.5366 140.396L94.488 168.476L86.6879 169.296L83.7365 141.215Z" fill="#B3B3B3"/>
<path d="M95.3969 132.103C95.3063 131.242 95.9314 130.47 96.7929 130.379L101.473 129.888C102.335 129.797 103.106 130.422 103.197 131.284L106.968 167.164L99.1681 167.984L95.3969 132.103Z" fill="#D8D8D8"/>
<g filter="url(#filter3_d)">
<rect x="27.6104" y="184.969" width="89.4118" height="15.6863" rx="1.56863" transform="rotate(-6 27.6104 184.969)" fill="white"/>
</g>
<rect x="32.7822" y="189.157" width="14.902" height="1.56863" rx="0.784314" transform="rotate(-6 32.7822 189.157)" fill="#B2B2B2"/>
<rect x="49.9426" y="187.353" width="14.902" height="1.56863" rx="0.784314" transform="rotate(-6 49.9426 187.353)" fill="#B2B2B2"/>
<rect x="107.664" y="181.287" width="3.92157" height="1.56863" rx="0.784314" transform="rotate(-6 107.664 181.287)" fill="#DBDBDB"/>
<rect x="33.2742" y="193.837" width="3.92157" height="1.56863" rx="0.784314" transform="rotate(-6 33.2742 193.837)" fill="#B2B2B2"/>
<rect x="38.7344" y="193.263" width="19.6078" height="1.56863" rx="0.784314" transform="rotate(-6 38.7344 193.263)" fill="#B2B2B2"/>
<rect x="108.156" y="185.967" width="3.92157" height="1.56863" rx="0.784314" transform="rotate(-6 108.156 185.967)" fill="#DBDBDB"/>
<rect x="23.5181" y="101.015" width="7.05882" height="1.56863" rx="0.784314" transform="rotate(-6 23.5181 101.015)" fill="#B2B2B2"/>
<rect x="32.8784" y="100.031" width="10.9804" height="1.56863" rx="0.784314" transform="rotate(-6 32.8784 100.031)" fill="#B2B2B2"/>
<rect x="90.5996" y="93.9646" width="11.7647" height="1.56863" rx="0.784314" transform="rotate(-6 90.5996 93.9646)" fill="#DBDBDB"/>
<rect x="24.01" y="105.695" width="11.7647" height="1.56863" rx="0.784314" transform="rotate(-6 24.01 105.695)" fill="#B2B2B2"/>
<rect x="38.0503" y="104.22" width="19.6078" height="1.56863" rx="0.784314" transform="rotate(-6 38.0503 104.22)" fill="#B2B2B2"/>
<rect x="83.2913" y="99.4645" width="19.6078" height="1.56863" rx="0.784314" transform="rotate(-6 83.2913 99.4645)" fill="#DBDBDB"/>
<path d="M25.0464 113.397C25.0237 113.182 25.18 112.989 25.3954 112.966C25.6108 112.944 25.8037 113.1 25.8264 113.315L32.344 175.327L31.564 175.409L25.0464 113.397Z" fill="#D8D8D8"/>
<path d="M31.4819 174.628L110.654 166.307C110.869 166.285 111.062 166.441 111.085 166.656C111.107 166.872 110.951 167.065 110.736 167.087L31.5639 175.408L31.4819 174.628Z" fill="#D8D8D8"/>
<path d="M76.2807 215.862C79.2507 215.55 81.4038 212.876 81.0898 209.888C80.7758 206.901 78.1137 204.732 75.1437 205.044C72.1737 205.357 70.0206 208.031 70.3346 211.019C70.6486 214.006 73.3108 216.175 76.2807 215.862Z" fill="#1E1E1E" stroke="#272727" stroke-width="1.30719"/>
<rect x="56.8149" y="82.3879" width="14.7469" height="1.48332" rx="0.741658" transform="rotate(-6 56.8149 82.3879)" fill="#343434"/>
<rect x="52.9041" y="82.799" width="1.47469" height="1.48332" rx="0.737346" transform="rotate(-6 52.9041 82.799)" fill="#343434"/>
<path d="M123.421 212.463C120.31 214.332 117.204 220.113 119.499 218.962C121.795 217.81 123.129 219.025 126.241 217.155C129.353 215.285 130.077 213.239 131.153 211.852C132.23 210.466 126.533 210.593 123.421 212.463Z" fill="#FF2B44"/>
<path fill-rule="evenodd" clip-rule="evenodd" d="M127.274 219.694C128.641 219.12 130.239 218.318 130.447 217.678C130.593 217.231 130.541 216.749 130.448 216.295C130.177 214.959 129.474 213.616 128.236 213.088C127.362 212.715 126.318 212.811 125.448 213.24C123.581 214.161 121.97 216.885 123.076 218.876C124.378 221.222 125.907 220.268 127.274 219.694Z" fill="#DE2C41"/>
<path d="M122.549 94.902C122.549 94.902 122.673 66.2238 132.549 46.4219C127.399 49.3526 122.673 55.8527 119.389 66.2238C116.524 75.2717 114.979 84.9064 114.979 94.902C114.979 110.464 118.284 129.517 124.688 146.639C131.392 164.564 122.549 94.902 122.549 94.902Z" fill="#FF2B44"/>
<path d="M178.271 181.917C177.913 181.375 178.062 180.645 178.604 180.287C179.146 179.928 179.876 180.077 180.234 180.619C186.326 189.835 197.844 195.686 210.595 195.686C223.389 195.686 234.939 189.795 241.014 180.531C241.37 179.988 242.1 179.836 242.643 180.193C243.186 180.549 243.338 181.278 242.982 181.822C236.46 191.767 224.162 201.176 210.595 201.176C197.074 201.176 184.811 191.809 178.271 181.917Z" fill="#D72230"/>
<path d="M182.295 176.955C181.606 176.644 180.842 176.471 180.037 176.471C177.005 176.471 174.547 178.929 174.547 181.961C174.547 182.628 174.666 183.268 174.884 183.86" stroke="#D72230" stroke-width="1.30719" stroke-linecap="round" stroke-linejoin="round"/>
<path d="M239.645 176.955C240.333 176.644 241.098 176.471 241.902 176.471C244.935 176.471 247.393 178.929 247.393 181.961C247.393 182.628 247.273 183.268 247.055 183.86" stroke="#D72230" stroke-width="1.30719" stroke-linecap="round" stroke-linejoin="round"/>
<path d="M12.1939 131.765C13.9266 131.765 15.3312 130.009 15.3312 127.843C15.3312 125.677 13.9266 123.922 12.1939 123.922C10.4612 123.922 9.05664 125.677 9.05664 127.843C9.05664 130.009 10.4612 131.765 12.1939 131.765Z" fill="#DE2C41"/>
<path d="M12.9782 141.176C14.2777 141.176 15.3311 139.772 15.3311 138.039C15.3311 136.307 14.2777 134.902 12.9782 134.902C11.6787 134.902 10.6252 136.307 10.6252 138.039C10.6252 139.772 11.6787 141.176 12.9782 141.176Z" fill="#DE2C41"/>
<path d="M319.057 215.003C320.37 215.761 322.575 214.399 323.983 211.961C325.391 209.522 325.468 206.931 324.155 206.173C322.842 205.415 320.636 206.777 319.228 209.216C317.821 211.654 317.744 214.245 319.057 215.003Z" fill="#DE2C41"/>
<path d="M306.955 228.696C308.081 229.71 310.287 229.097 311.881 227.327C313.475 225.557 313.854 223.299 312.728 222.284C311.601 221.27 309.395 221.883 307.801 223.653C306.207 225.424 305.828 227.681 306.955 228.696Z" fill="#DE2C41"/>
<defs>
<filter id="filter0_d" x="320.461" y="99.6843" width="60.6947" height="78.5084" filterUnits="userSpaceOnUse" color-interpolation-filters="sRGB">
<feFlood flood-opacity="0" result="BackgroundImageFix"/>
<feColorMatrix in="SourceAlpha" type="matrix" values="0 0 0 0 0 0 0 0 0 0 0 0 0 0 0 0 0 0 127 0"/>
<feOffset dy="3"/>
<feGaussianBlur stdDeviation="1.5"/>
<feColorMatrix type="matrix" values="0 0 0 0 0 0 0 0 0 0 0 0 0 0 0 0 0 0 0.07 0"/>
<feBlend mode="normal" in2="BackgroundImageFix" result="effect1_dropShadow"/>
<feBlend mode="normal" in="SourceGraphic" in2="effect1_dropShadow" result="shape"/>
</filter>
<filter id="filter1_d" x="332.582" y="168.428" width="60.6947" height="78.5084" filterUnits="userSpaceOnUse" color-interpolation-filters="sRGB">
<feFlood flood-opacity="0" result="BackgroundImageFix"/>
<feColorMatrix in="SourceAlpha" type="matrix" values="0 0 0 0 0 0 0 0 0 0 0 0 0 0 0 0 0 0 127 0"/>
<feOffset dy="3"/>
<feGaussianBlur stdDeviation="1.5"/>
<feColorMatrix type="matrix" values="0 0 0 0 0 0 0 0 0 0 0 0 0 0 0 0 0 0 0.07 0"/>
<feBlend mode="normal" in2="BackgroundImageFix" result="effect1_dropShadow"/>
<feBlend mode="normal" in="SourceGraphic" in2="effect1_dropShadow" result="shape"/>
</filter>
<filter id="filter2_d" x="15.6436" y="86.8325" width="103.63" height="100.837" filterUnits="userSpaceOnUse" color-interpolation-filters="sRGB">
<feFlood flood-opacity="0" result="BackgroundImageFix"/>
<feColorMatrix in="SourceAlpha" type="matrix" values="0 0 0 0 0 0 0 0 0 0 0 0 0 0 0 0 0 0 127 0"/>
<feOffset dy="3"/>
<feGaussianBlur stdDeviation="1.5"/>
<feColorMatrix type="matrix" values="0 0 0 0 0 0 0 0 0 0 0 0 0 0 0 0 0 0 0.07 0"/>
<feBlend mode="normal" in2="BackgroundImageFix" result="effect1_dropShadow"/>
<feBlend mode="normal" in="SourceGraphic" in2="effect1_dropShadow" result="shape"/>
</filter>
<filter id="filter3_d" x="24.7656" y="175.778" width="96.2511" height="30.6359" filterUnits="userSpaceOnUse" color-interpolation-filters="sRGB">
<feFlood flood-opacity="0" result="BackgroundImageFix"/>
<feColorMatrix in="SourceAlpha" type="matrix" values="0 0 0 0 0 0 0 0 0 0 0 0 0 0 0 0 0 0 127 0"/>
<feOffset dy="3"/>
<feGaussianBlur stdDeviation="1.5"/>
<feColorMatrix type="matrix" values="0 0 0 0 0 0 0 0 0 0 0 0 0 0 0 0 0 0 0.07 0"/>
<feBlend mode="normal" in2="BackgroundImageFix" result="effect1_dropShadow"/>
<feBlend mode="normal" in="SourceGraphic" in2="effect1_dropShadow" result="shape"/>
</filter>
</defs>
</svg>
